<?xml version="1.0" encoding="utf-8"?>
<!-- Generator: Adobe Illustrator 26.5.0, SVG Export Plug-In . SVG Version: 6.00 Build 0)  -->
<svg version="1.1" id="Layer_2_00000170982084235660424860000005148896692117088906_"
	 xmlns="http://www.w3.org/2000/svg" xmlns:xlink="http://www.w3.org/1999/xlink" x="0px" y="0px" viewBox="0 0 124.8 40.6"
	 style="enable-background:new 0 0 124.8 40.6;" xml:space="preserve">
<style type="text/css">
	.st0{fill:#928661;}
	.st1{fill:#5A4088;}
	.st2{font-family:'Highgate-XBold';}
	.st3{font-size:16.11px;}
	.st4{letter-spacing:-1;}
	.st5{fill:#5E424F;}
</style>
<g>
	<path class="st0" d="M124.8,2.9c-0.1-0.2-0.5-0.7-0.6-0.5l0.4,0.9L124.8,2.9L124.8,2.9z"/>
	<path class="st0" d="M122.7,2.1c0.1,0.5,0.3,1.4,1,2c-0.3-0.9-0.1-0.6-0.5-1.7c0.1-0.2,0.5,0.1,0.6,0.4c-0.1-0.2,0.4,0,0.1-0.6
		c-0.6-0.5-0.9-0.3-0.8,0.4C122.9,2.5,122.8,2.2,122.7,2.1z"/>
	<path class="st0" d="M106,10.6l0.2,0C106.1,10.6,106,10.6,106,10.6z"/>
	<path class="st0" d="M95.6,15.8c0.1-0.1,0.1-0.2,0-0.2C95.6,15.7,95.5,15.8,95.6,15.8z"/>
	<path class="st0" d="M93.3,15.8c0.1,0,0.1,0,0.1,0C93.4,15.8,93.3,15.7,93.3,15.8z"/>
	<path class="st0" d="M106,10.6l-0.4-0.1C105.7,10.8,105.8,10.6,106,10.6z"/>
	<path class="st0" d="M121.9,5.5c0-0.1,0-0.2,0-0.3c0,0.1-0.1,0.1-0.1,0.2C121.8,5.5,121.9,5.5,121.9,5.5L121.9,5.5z"/>
	<path class="st0" d="M110,7.4L110,7.4c0.1-0.2,0-0.3-0.1-0.4L110,7.4z"/>
	<path class="st0" d="M113.2,5.2c-0.1,0,0.3,0.8,0.5,1.1c-0.1-0.3-0.2-0.5-0.1-0.6C113.5,5.6,113.4,5.4,113.2,5.2L113.2,5.2z"/>
	<path class="st0" d="M119.3,3.2l0-0.2C119.3,3,119.3,3.1,119.3,3.2z"/>
	<path class="st0" d="M107.5,8.6c-0.1-0.1-0.1-0.2-0.2-0.2C107.4,8.5,107.4,8.6,107.5,8.6z"/>
	<path class="st0" d="M7.4,38.5c0,0-0.1-0.1-0.1-0.1C7.4,38.5,7.4,38.5,7.4,38.5z"/>
	<path class="st0" d="M1.5,38.5L1.5,38.5c-0.1-0.2-0.2-0.3-0.4-0.4C1.1,38.1,1.5,38.5,1.5,38.5z"/>
	<path class="st0" d="M89.6,16.6C89.6,16.6,89.6,16.6,89.6,16.6C89.7,16.5,89.6,16.5,89.6,16.6z"/>
	<path class="st0" d="M60.1,28.2c0.5,0.7-0.5,1,0.2,1.8C60.2,29.7,60.6,28.7,60.1,28.2z"/>
	<path class="st0" d="M121.8,5.5c0,0-0.1,0.1-0.1,0.1C121.7,5.6,121.7,5.5,121.8,5.5z"/>
	<path class="st0" d="M60.2,30L60.2,30L60.2,30C60.3,30.1,60.3,30.1,60.2,30z"/>
	<path class="st0" d="M82.6,20.9c0.1,0.1,0.2,0.2,0.2,0.3C82.8,21.1,82.7,21,82.6,20.9z"/>
	<path class="st0" d="M88.6,19.1l-0.2,0C88.5,19.1,88.5,19.1,88.6,19.1z"/>
	<path class="st0" d="M80.2,23.3c-0.1,0-0.2-0.1-0.2,0c0,0,0.1,0.1,0.1,0.1C80.1,23.3,80.1,23.2,80.2,23.3z"/>
	<path class="st0" d="M77.2,24.7c0,0,0.1,0.1,0.1,0.1l0.1-0.1C77.4,24.7,77.2,24.7,77.2,24.7z"/>
	<path class="st0" d="M14.9,34c-0.1-0.2-0.2-0.4-0.4-0.7C14.8,33.9,14.5,34.2,14.9,34z"/>
	<path class="st0" d="M121.6,5.1c0.1,0.2,0.1,0.3,0.1,0.4c0,0,0.1-0.1,0.1-0.1C121.8,5.3,121.7,5.2,121.6,5.1z"/>
	<path class="st0" d="M82.9,29.4l-0.6,0.1C82.5,29.5,82.7,29.5,82.9,29.4z"/>
	<path class="st0" d="M37.4,34.5l-0.1,0.1C37.3,34.6,37.4,34.6,37.4,34.5z"/>
	<path class="st0" d="M80.9,30.3c-0.2-0.2-0.4-0.4-0.5-0.4c0,0.1,0,0.1,0,0.2L80.9,30.3z"/>
	<path class="st0" d="M14.6,33.3L14.6,33.3L14.6,33.3z"/>
	<path class="st0" d="M12.5,36.3c0.4-0.2-0.3-1.1-0.4-1.7c0.4-0.5,0.6,0.6,0.9,1.1c0.2-0.4,0-1.4,0.3-1.5c0.1,0.2,0.1,0.2,0.2,0.4
		c0-1,0.9-0.4,1-1.6c0.1,0.1,0.1,0.2,0.1,0.2c-0.2-0.5-0.4-1-0.5-1.4c0.2-0.1,0.2-0.8,0.5-0.1c-0.1,0-0.1,0.3-0.1,0.5l0.1-0.4
		c0.5,0.9-0.2,0.4,0.1,1.2c0.3-0.4,0.6-1.4,1-1.2c0.3,1-0.6,0.5,0,1.3L15,33c0.8,1.4-0.3,0,0.5,1.5c0.7,0.1,0.5-0.7,1.2-0.6
		c0-0.6-0.2-0.8-0.2-1.4c0.7-1.2,1.2,2.3,1.6,0.9c0-0.7-0.1-2,0.5-1.4v1.2c0.6,0,0.1-1.7,0.9-1c-0.1,0.5-0.4,0.4-0.3,0.6
		c0.5,0.8,0.2-0.7,0.5-0.7l0.2,1c0.6-0.2,1.3-1,2.1-1.2c0,0.3-0.2,0.6,0,0.9c0.9-0.5,2,0.2,2.9,0.8l0.4-0.8c0.1,0,0.1,0.4,0,0.6
		c0.3,0.4,0.1-0.6,0.3-0.9c0.2,0,0.2,0.5,0.1,0.8c0.7-0.7,2.1-1.4,2.6-0.4l-0.2,0.2c0.5,0.4,0.9-1.7,1.3-0.8l-0.1,0.1
		c1.1,0.5,2.6,0,3.4,1.4c0.4-1.2,1.2,0.7,1.5-1c0.6,1,0.3,1.2,1.3,2c0.3,0.1,0.5-1,0.9-1.2l-0.1,0.9l0.6-0.9l0.1,1.1l0.3-0.2
		c-0.1-0.1-0.2-0.5-0.2-0.7c0.5-0.3,1.1,0.8,1.1,1.3l1.2-0.6c-0.1,0.4-0.3,0.5-0.5,0.7c0.7-0.9,0,1,0.7,0.2c0-0.2,0.1-0.5,0.1-0.7
		c0.2,0.6,0.9,0.7,1.4,0.5L41,35.7c0.8,0.3,1.9-0.1,2.8,0c-0.3-0.3-0.2-1.4,0.1-1.5l0,1c0.2-0.6-0.3-0.4,0.2-1.1
		c0.3,0.1,0.2,1.1-0.1,1.4l0.5-0.3c0,0.3-0.1,0.4-0.2,0.8c0.2-0.6,0.7,1,1,0v0.3c1,0.1,1.5-0.2,2.3-0.2c0.1-0.8,0.4-0.6,0.6-1.3
		c0.6,0.3,1.2,1,1.9,0.9c0.5-0.4,0.2-0.7,0.4-1.2c0,0.8,0.7,0.7,0.4,1.2c0.9-0.1,1.1-0.1,2.2-0.8c-0.1-0.3-0.2-0.5-0.2-0.7
		c0.2-0.1,0.4,0.3,0.4,0.7l0,0.1c1.2-1.2,2.9,2.2,3.8,0.5l0,0.1l1-0.9c0.5,0.1-0.2,0.6,0.1,1c1-1.3,1.8,0,2.6-0.9
		c1,2.2,2.4-0.5,3.6,0.8l-0.1-0.5c0.2-0.6,0.3,0.2,0.6,0.3c-0.1-0.4-0.3-0.4-0.2-0.7c1.9-1,4.4-0.1,6.6-0.2c0.8-0.1-0.3-2.8,0.9-1.8
		l0,1c1.2-1.6,3.1-1,4.2-2.4c0,0.2,0.1,0.5,0,0.6c0.6,0.6,1.1-0.4,0.9-0.9c0.2,0,0.2,0.5,0.5,0.7c0.5,0.3,0.4-1.1,0.8-0.5
		c0.1,0.1,0,0.2,0,0.3c0.1-0.4,0.9-0.3,0.4-1c0.7,0.1,0.9-0.8,1.5-0.5c-0.1-1,1.1,0,0.6-1.2c0.5,1.3,1.3,0.6,1.4-0.1
		c0.1,0.4,0.5,0.3,0.6,0.8c0.4-0.2,0.6-0.6,0.2-1.2c1.4,1.1,0.8-1.8,2.1-0.1c0.8-1.2,1.5-2.1,2.3-2.9c0.6,1.2-1,0.7-0.3,1.9
		c0.7-1,0.6-2.3,1.7-2.4c0.3,0,0.1,0.6,0.2,0.8c0.6-1,1.8-0.8,2.2-1.9c0.1,0.1,0,0.3,0,0.4c0.1-0.1,0.5,0,0.2-0.5l-0.1,0.2
		c-0.7-0.6-0.3-2-0.5-2.4c0.6,1.7,1,0,1.6,2.1c0.1-0.2,0-0.5-0.2-0.8c0.2,0,0.4,0.2,0.4,0.7c0.4-0.6-0.1-1.1,0.4-1.3
		c0.1,0.3,0.1,0.4,0.2,0.8c0-0.6-0.1-1.3,0.5-1.3c0.1,0.2,0.2,0.4,0.1,0.4c0.7-0.5,0.5-2,1.6-2c0.4,1.3,0.5,0.2,1.1,1.2l0.3-0.5
		l-0.4-0.4c0.4-0.2,0.3-1.1,0.8-0.9l-0.1,0.6l0.6-0.6L97.2,19c0.1-0.7-0.7-1.2-0.1-1.2c-0.1,0.2,0.4-0.2,0.9,0.3l0,0
		c0-0.4,0-0.8,0.4-0.8c0.2,0.3,0.5,1.1,0.7,1.3c-0.3-0.9,0.8-0.7,0.5-1.7c0,0.2,0.3,0.8,0.4,0.9L99.8,17c0.3,0.1,0.4,0.2,0.6,0.6
		c0.6-0.2-0.8-1.1,0.1-1c0,0.1,0.1,0.2,0,0.3c0.8-0.1,1-1.1,1.7-1.1c0.7,0.9-0.4,0.5,0.3,1.2c0.7-0.6,1-2.1,2-2.3l-0.2,0
		c-0.7-1.4,1,0.4,1-0.5c0,0.2,0.3,0.8,0.2,0.7c0.7-0.1,0.9-1,1.5-1.9l0.1,0.4c0.5,0.1,0.9-0.3,1.4-0.3c-0.1-0.4,0.1-0.5-0.3-0.9
		c2.2,1.4,1.4-2.2,3.3-1.1c-0.1,0.1-0.1,0.5,0,0.4l0.6-0.8c-0.4-0.6-0.3-0.3-0.8-0.7c-0.1-0.4-0.1-0.8,0.2-0.9
		c-0.1,0.6,0.6,1,0.9,1.2c-0.1-0.2-0.2-0.4-0.3-0.6c1.1,0.8-0.7-1.2,0.3-0.9l0.2,0.3c0.1-0.3,0.1-0.8,0.3-0.9c0.5,0.6,0,0.5,0.3,1
		c0.3-0.2-0.2-1.7,0.6-1.2c0,0.3-0.2,0.4-0.2,0.7c0.8,0.6,0.7,0.4,1,0.4h0l0.8,0L115,9.2c-0.7-2,0.6-0.8,0.4-2.3
		c0.2,1.4,0.3,0.7,0.8,1.5c0.3,0.1,0.6,0.2,0.7,0.5c-0.1-0.8,0.7,0.2,0.5-0.9c0.2,0.2,0.3-0.1,0.6,0.5c0.2-0.4-0.3-0.4-0.5-0.7
		c0-1.2,1.8,0.3,1.8-1.3c0.3-0.9-0.1-1.8,0.2-2.6c0.4,0.3,0.4,1,0.4,1c0.6,0.2,0.7-0.1,0.8-0.5c0.1,0.2,0.3,0.4,0.5,0.6
		c0.2-0.2-0.4-1,0.1-0.8c0.1,0.3,0.3,0.8,0.4,1.1c0.1-0.4,0.1-1.1,0.2-1.5c0.4,0.4,0.3,0.8,0.3,1.1c0.2-0.4,0.6-0.9,0.2-1.7L122.3,3
		c0.1-0.1,0.4,0.5,0.4,0.7c0.1,0.7-0.6,0-0.7-0.2l0.1-0.3c-1.2-1.3-0.7,0.8-1.1,1l-0.5-1.2l0.2,1.1c-0.3-0.2-0.7-0.8-0.6-1
		c-0.6-0.3,0,0.5-0.7,0.1c-0.1-0.1-0.1-0.1-0.1-0.2l-0.1,0.5c-0.1-0.3-0.5-0.7-0.2-0.7c-0.9-0.3-0.3,1.3-1,0.7V3.5
		c-0.5,0.8,0.4,0.8,0.5,2.1l-1.6-1.7l0.4,0.8c-0.1,0-0.3,0.1-0.4-0.3c0.1,0.7,0.3,0.3,0.4,0.9c-0.8-0.5-0.8,1-1.6-0.2
		c0.2,0.7,0.6,0.2,0.5,0.9c-0.9-1.3-0.3,0.5-1,0.1c-0.3-0.8,0.2-0.6-0.5-1c0.5,1.3-0.8,0.1-0.9,0.5c0.6,0.9-0.4,0.8-0.7,1.3
		c-0.2-0.3-1.2,0-1.8-0.1L111,6.8c0.5,1-0.1,1.1-0.3,1.5c-0.3-0.6-0.4-0.8-0.4-1.2L110,7.3c0.1,0.3,0.1,0.6,0,0.8l-0.3-0.8
		c-0.4,0.3-0.3,1.3-1.2,1.2c0.4,0.7,1.5,1.6,1.2,2.4c-0.2-0.4-0.6-0.9-0.6-1.2c0,0.1,0,0.4-0.2,0.3l-0.1-0.7
		c-0.4-0.1,0.2,0.6-0.1,0.6c-0.3-0.5-0.4-0.3-0.6-0.7c0-0.1,0.3,0.1,0.2-0.1c-0.3,0-0.7-0.1-1-0.4c0.2,0.3,0.4,0.7,0.3,0.9
		c-0.4,0.3-0.5-0.5-0.9-0.7c0.1,0.4-0.4,0.2,0.1,1c-0.1,0.1-0.3-0.3-0.5-0.5c0,0.5-0.9,0.7-0.2,1.4l0.1,0c0,0,0,0,0,0.1l0,0l0,0
		c-0.3,1.2-1.7,0.4-2.2,1.1l-0.2-0.3c-0.2,0.5-0.8,0.7-0.8,1.4c-0.1,0.1-0.6-0.3-0.7-0.6c-0.2,0.4-0.1,0.7-0.8,0.5
		c0.1-0.6-0.3-0.3,0.2-0.5c-0.5,0-0.9-0.4-0.9,0.6c-0.2-0.8-0.8-0.7-0.9-0.4l0.6,0.3c-0.2,0.2-0.4,0.3-0.6,0.3l-0.4-0.9
		c-1.4-0.6-0.5,2.7-2.2,1.2c0.1,0.7,0.7,0.2,0.9,1c-0.5,0.1-1.6-0.9-1.7-0.9c-0.8-0.2,0.2,1.6-0.6,1.5c0.2,0.3,0.8,1.1,0.5,1.6
		c-0.5,0.1-1.2-1-1.1-1.4c0.1-0.1,0.2,0,0.2,0.1c0.1-0.2,0.2-0.4-0.2-0.7l0.1,0.3c-0.4-0.2-0.9,0.1-1.1-0.5
		c-0.1,0.5,0.2,0.6,0.5,0.6c-0.8-0.2-0.8,0.4-1.5,0.4c0.2,0.1,0.5,0.5,0.4,0.5c-1,0,0,0.8-0.5,1.2c-0.6-0.3-0.5-1.2-0.8-0.5
		c-0.5-0.1-0.5-0.8-0.5-1.1c-0.2,0.9-1.1,0.1-1.4,0.1l0.1-0.4c-0.1,0.2-0.2,0.3-0.3,0.4l0.5,0.5c-0.2,0-0.3,0-0.5-0.2
		c0.1,0.5,0.7,1,0.7,1.7c-0.4-0.2-0.4,0.7-0.9-0.1c0.8-0.1-0.5-0.8-0.1-1.2c-0.1,0.1-0.2,0.2-0.4,0.2c-0.1-0.1-0.1-0.2-0.1-0.2
		c-1-0.4,0.2,1.1-0.4,1.4c-0.2-0.5-0.6-0.8-0.7-0.7c0.2-0.1,0.5,0.7,0.5,1.2c-0.6-0.1-0.3,0.5-0.5,0.6l0.3,0
		c0.2,0.5-0.1,0.6-0.2,0.9c-0.2-0.4,0.1-0.4-0.1-0.5c0.1,1-1.1-0.5-1.3,0.3c-0.4-0.2-0.5-0.9-0.8-1c-0.2,0.9-0.8-0.4-1.1,0.4
		c0.5,0.6,0.4,0.4,0.4,1.2l0.6-0.9l0,1.2c0.2-0.1,0.3-0.7,0.5-0.6c0,0.6,0,0.5,0.4,0.9c-0.8-0.8-0.4,0.9-1.1,0.5l-0.8-1.6
		c-0.9-0.4-0.6,1.4-1.6,1.3l0.4,0.1c0.2,0.7-0.4,0.3-0.6,0.7c-0.2-0.5-0.5-0.7-0.8-0.9c0.2,0.4-0.6,0.2-0.1,1.3L81.9,22
		c-0.8,0,0,1.9-0.7,2c-0.1-0.7-0.5-0.9-0.3-1.5c-0.2,0.1-0.4,0.1-0.3,0.5c-0.3-0.3-0.2,1-0.6,0.6c0,0.3,0.2,0.9,0,0.9
		c-0.1-0.1-0.1-0.3-0.1-0.3c0.1,0.3-0.2,0.5,0.3,1c-1.4-1.4-1.7,0.9-2.9-0.3c-0.4,0.4-0.8,0.8-1.2,1c0-0.2-0.1-0.3,0-0.2
		c-0.8-0.3,0.3,1.7-0.6,1.4c-0.7-0.8,0.2-0.6-0.2-0.9c-0.8-1.8-0.7,0.5-1.5-0.4l0.1-0.1c-0.6-0.5-0.6,1-1.1,1c0,0,0-0.2-0.1-0.3
		c0,1.1-0.7,1.6-1.1,2c-0.1-0.8,0.1-0.5-0.2-1.2c-0.2,0.2,0.4,1.2,0,1.5c-0.3-0.4-0.7-0.6-1-1.4l0.4-0.2c-0.5-1-0.6,0.2-0.8,0.1
		l-0.1-0.5c-0.6,0.3-0.3,1.5-1.1,1.6l0.2,0.3c-0.1,1.2-0.5-0.5-0.7,0.4L67.7,28c-0.2,0.3-0.7,1.3-1.1,1.7c0.1-0.9,0.5-1.5,0.8-2.1
		c-0.3,0.1-0.9,0.3-0.9,0.9c0.1-0.1,0.2-0.5,0.3-0.3c-0.1,1-0.4,1.5-1,1.6c-0.4-2.3-1.5-0.3-2.2-2c-0.8,1-1.9,0-3,0.2
		c0.6,1.7-0.3,0.1,0,1.9c-0.2,0.1-0.3,0.1-0.4,0l-0.9-1c-0.2-0.5,0.2-0.4,0.1-0.8c-0.6-0.1-0.3-0.8-0.7-1.2c0.1,0.6-0.1,1-0.4,0.7
		l0.5,0.8c-0.7,1.1-0.8-1.5-1.5-0.5l0.2-0.6c-0.4,0.4-1.5,0.1-1.8,1.6c-0.1-0.2-0.2-0.7,0-0.9c-1-0.2-2.1,1.6-2.9,0.7l0.1-0.5
		c-0.2,0.1-0.3,0.9-0.5,0.4c0-0.2,0.1-0.5,0-0.5c-0.1,0.1-0.5,0.8-0.7,0.5l0.2-0.5c-0.9-0.6-1.5,1.2-2.3,1.5c0-1.3-0.7-1.8-1.1-2
		l0-0.2c-1.1-0.2-2,1-3,1.4c-0.5-1.5-2.2-0.8-3.1-1.7c0.1,0.3-0.1,1-0.3,1.1c-0.2-0.3-0.8,0.8-0.6-0.4l0.1,0c-0.1-1.2-0.6-0.9-1-1
		l-0.2,1.6c-0.8-2.4-2.8,0.5-3.1-1.6c-0.3,0.4-0.6,0.3-0.9,0.7l0.1-0.8c-0.7-0.3-1-0.5-1.9-0.4l0.3-0.6c-0.5-0.1-1,2.3-1.4,2.3
		l0-1.3c-0.8-0.1-1.5-1.3-2.6-0.3c0-0.2,0.1-0.5,0.3-0.6c-0.4-0.1-1.5-1.1-1.6,0.7c0.1-1.1-0.9-0.2-1.4,0.2l0.2-0.8
		c-0.5,1-0.6,1.3-1.2,1.5c-0.1-0.1,0-0.7,0.1-0.5c-0.4-0.5-0.4,0.8-0.9,0.2l0.2-0.5c-0.5-0.1-0.5,0.2-0.8,0.8
		c-0.3,0.3-0.9-0.3-0.9-1c-0.1,0.5-0.4,1-0.6,0.8c0-0.3,0.1-0.5,0.1-0.5c-0.8-0.6-1.2,0.9-1.7,0.1c0-0.3,0-0.4-0.1-0.5
		c0.6,0,1.1,0.1,1.1,0.1c0-0.8-0.5-0.9,0-2c-0.5,0.6-1.2,1.8-1.7,1.5c0-0.1,0-0.1-0.1-0.3l0-0.1c-0.1-0.1-0.2,0-0.3,0.1
		c-0.2-0.1-0.3-0.2-0.4-0.2c-0.1-0.6-0.6-0.3-0.9-0.3c0.1,0.8-0.3,0.7,0.1,1.4c0-0.1,0-0.1,0.2-0.1c0,0,0.1,0,0.1-0.1c0,0,0,0,0,0.1
		c0.2,0,0.4-0.1,0.6-0.1c-0.2,0.4-0.4,0.8-0.7,0.4c-0.1,0.5-0.2,1.1-0.3,1.4c-0.4-1.1-1.2-1.7-1.4-2.4c-0.8,0.6-1.9,0.6-2.1,2.2
		c-0.2,0.2-0.3-0.4-0.5-0.6c0.1-0.2,0.2-0.2,0.3-0.4c-0.4,0.5-1.3,0.4-1.1,1.5c-0.7-0.4,0.1-1.1-0.6-0.7l0-0.4c-1-0.7-1.4,0.2-1.8,1
		c-0.4,0.8-0.8,1.5-2,0.8c0.2,0.1,0.2,0.1,0.3,0.3c-1.1-0.1-1.9,0.5-2.7,1.1c-0.8,0.6-1.6,1.1-2.8,1c-0.6,0-0.3,0.6-0.2,1.3
		l-0.6-0.7l0.2,1.2C5.2,34.3,4.6,34,4,33.9c-0.6-0.1-1.2-0.2-1.1,0.7L3.4,35c-0.3,0.2-0.6,1-1,0.5c0,0.1,0.3,0.5,0,0.4l-0.3-0.3
		l0,1.2C1.3,37,0.8,35.3,0,36c-0.1,0.4,0.3,1.7,0.7,1.8c0.1-0.1,0.5-0.1,0.8,0.2l0,0.4c1,1,2,2,3.2,2.1l-0.3-0.9L4.9,40l-0.2,0.3
		c0.6,0.3,0.3-0.2,0.1-0.6c0.3,0.2,0.5,0.3,0.7,0.4c-0.2-0.4-0.4-0.8-0.6-1.3c0.4,0.3,0.6,0.9,1.1,0.9c-0.3-0.6-1-0.7-1-1.3
		c0.6,0.3,0.9,0.7,0.7,0.1C5.9,38.8,6,39,6.1,39.2C5.9,38.8,6.4,38.7,6,38c0.7,0.4,0.5-0.7,1.3,0.3c-0.2-0.3-0.3-1.1-0.2-1.3
		c0.7,1.5,0.7-0.4,1.6,1c-0.6-1.3,0.5-1.1,0.5-2c0,0.1,0.1,0.3,0,0.3c0.3-0.1,0.6,0.3,0.9,0.4c-0.6-1-0.3-1.5-0.4-2.3
		c0.9,0.8,0.5,1.3,1.1,2.2c-0.5-0.8,0.1-1.1-0.4-1.8c0.6,0.5,0.4,0.2,0.9,1c-0.6-1.3,0.1-0.3-0.1-1.2c0.7,0.5,0.7,1.2,0.9,0.6
		C12.6,35.7,12.5,36.3,12.5,36.3L12.5,36.3z M22,31.6L22,31.6c-0.1,0-0.2,0.1-0.2,0.1C21.8,31.6,21.9,31.6,22,31.6z M22.9,31.6
		c-0.1,0-0.2,0-0.4,0c0-0.3,0-0.6,0.1-0.6C22.6,31.1,22.8,31.3,22.9,31.6z M20.7,25.8c0.2-0.1,0.2,0,0.3,0.2c-0.1,0-0.2,0-0.3,0.1
		c0,0,0,0.1,0,0.1C20.6,26,20.6,25.9,20.7,25.8L20.7,25.8z"/>
	<path class="st0" d="M20.4,26.9C20.4,26.9,20.4,26.9,20.4,26.9c0,0.1,0,0.2,0,0.2C20.5,27,20.5,26.9,20.4,26.9
		C20.5,26.9,20.5,26.9,20.4,26.9z"/>
	<path class="st0" d="M106.2,10.7L106.2,10.7C106.1,10.7,106.2,10.7,106.2,10.7C106.2,10.7,106.2,10.7,106.2,10.7z"/>
	<polygon class="st0" points="36.2,34.8 36.2,34.6 36.1,34.7 	"/>
	<path class="st0" d="M112.4,10.4c0.1,0.1,0.1,0.1,0.2,0.1C112.5,10.5,112.5,10.4,112.4,10.4z"/>
	<path class="st0" d="M114.6,9.3l0.4,0.1C114.8,9.3,114.7,9.3,114.6,9.3z"/>
	<path class="st0" d="M116.3,8.7c-0.1-0.1-0.1-0.2-0.2-0.3l0,0L116.3,8.7L116.3,8.7z"/>
	<path class="st0" d="M91.3,24C91.3,24,91.3,24.1,91.3,24C91.2,24.3,91.3,24.2,91.3,24z"/>
	<path class="st0" d="M98,18.1c0,0.2,0,0.4-0.1,0.5C98.2,18.6,98.3,18.5,98,18.1z"/>
	<path class="st0" d="M82.9,29.4C82.9,29.4,82.9,29.4,82.9,29.4C82.9,29.4,82.9,29.4,82.9,29.4L82.9,29.4L82.9,29.4z"/>
	<path class="st0" d="M97.6,18.8c0.2,0.1,0.3,0,0.4-0.2C97.8,18.6,97.7,18.6,97.6,18.8z"/>
	<path class="st0" d="M123.3,4.7L123.3,4.7c0.1,0,0-0.1,0-0.1L123.3,4.7L123.3,4.7z"/>
	<path class="st0" d="M123.3,4.5l0-0.1C123.4,4.4,123.3,4.4,123.3,4.5z"/>
	<path class="st0" d="M123.4,4.1l-0.1,0.3C123.4,4.4,123.5,4.3,123.4,4.1z"/>
	<path class="st0" d="M121.1,5.7l0.1,0.3C121.2,5.9,121.1,5.8,121.1,5.7z"/>
	<path class="st0" d="M120.5,6.2c0.2,0,0.7,0.3,0.8,0L121.2,6C121.4,6.4,120.3,5.7,120.5,6.2L120.5,6.2z"/>
	<path class="st0" d="M115.8,4.7l0.7-0.1c-0.3-0.2-0.6-0.5-0.4-0.7C114.9,3.4,116.6,4.3,115.8,4.7z"/>
	<path class="st0" d="M114,5.3c0.2-0.3-0.2-0.4-0.3-0.6C113.6,5.1,113.6,5.1,114,5.3z"/>
	<path class="st0" d="M102.1,12.2l-0.3-0.7C101.6,11.7,101.9,11.8,102.1,12.2z"/>
	<polygon class="st0" points="101.7,17 102.2,17.3 101.9,16.6 	"/>
	<polygon class="st0" points="97.7,13 97.7,12.8 97.5,13.3 	"/>
	<path class="st0" d="M77.5,23.7l0.4,0.8C78,24.4,77.6,23.4,77.5,23.7z"/>
	<path class="st0" d="M68.7,27.9c-0.2-0.4-0.6-0.6-0.6-0.1C68.3,27.7,68.6,28,68.7,27.9z"/>
	<polygon class="st0" points="39.8,27.6 40,27.3 39.6,27.5 	"/>
</g>
<text transform="matrix(1 0 0 1 1.69 14.68)" class="st1 st2 st3">THE</text>
<text transform="matrix(1 0 0 1 1.69 34.01)" class="st1 st2 st3">G</text>
<text transform="matrix(1 0 0 1 13 34.01)" class="st1 st2 st3">R</text>
<text transform="matrix(1 0 0 1 24.17 34.01)" class="st1 st2 st3">AD</text>
<text transform="matrix(1 0 0 1 48.78 34.01)" class="st1 st2 st3">E</text>
<text transform="matrix(1 0 0 1 58.11 34.01)" class="st1 st2 st3">UL</text>
<text transform="matrix(1 0 0 1 79.2 34.01)" class="st1 st2 st3 st4">A</text>
<text transform="matrix(1 0 0 1 90.51 34.01)" class="st1 st2 st3">T</text>
<text transform="matrix(1 0 0 1 100.33 34.01)" class="st1 st2 st3">OR</text>
<rect x="23.6" y="53" class="st5" width="42.7" height="42.7"/>
<path class="st0" d="M66.1,53.9c0-0.3-0.2-0.8-0.2-0.6l0.2,1L66.1,53.9L66.1,53.9z"/>
<path class="st0" d="M65.4,53.1c0,0.6,0.1,1.5,0.3,2.3c-0.1-1,0-0.7-0.2-1.9c0-0.2,0.2,0.1,0.2,0.4c0-0.3,0.1,0,0-0.6
	c-0.2-0.5-0.3-0.4-0.3,0.4C65.5,53.5,65.5,53.3,65.4,53.1z"/>
<path class="st0" d="M59.7,62.5L59.7,62.5C59.8,62.5,59.7,62.5,59.7,62.5z"/>
<path class="st0" d="M56.2,68.3c0-0.1,0-0.2,0-0.3C56.2,68.1,56.2,68.2,56.2,68.3z"/>
<path class="st0" d="M55.4,68.3C55.4,68.3,55.4,68.3,55.4,68.3C55.4,68.2,55.4,68.2,55.4,68.3z"/>
<path class="st0" d="M59.7,62.5l-0.1-0.1C59.6,62.7,59.7,62.5,59.7,62.5z"/>
<path class="st0" d="M65.1,56.9c0-0.1,0-0.2,0-0.3c0,0.1,0,0.1,0,0.2C65.1,56.8,65.1,56.9,65.1,56.9L65.1,56.9z"/>
<path class="st0" d="M61.1,58.9L61.1,58.9c0-0.2,0-0.3,0-0.5L61.1,58.9z"/>
<path class="st0" d="M62.2,56.5c0,0,0.1,0.8,0.2,1.2c0-0.4-0.1-0.6,0-0.7C62.3,56.9,62.3,56.8,62.2,56.5L62.2,56.5z"/>
<path class="st0" d="M64.3,54.3l0-0.2C64.3,54.1,64.3,54.2,64.3,54.3z"/>
<path class="st0" d="M60.2,60.3c0-0.1,0-0.2-0.1-0.3C60.2,60.1,60.2,60.2,60.2,60.3z"/>
<path class="st0" d="M26.2,93.4c0,0,0-0.1,0-0.1C26.1,93.4,26.2,93.4,26.2,93.4z"/>
<path class="st0" d="M24.1,93.4L24.1,93.4c0-0.2-0.1-0.3-0.1-0.4C24,93,24.1,93.4,24.1,93.4z"/>
<path class="st0" d="M54.2,69.2C54.2,69.2,54.2,69.2,54.2,69.2C54.2,69,54.2,69.1,54.2,69.2z"/>
<path class="st0" d="M44.1,82c0.2,0.8-0.2,1.1,0.1,2C44.1,83.7,44.3,82.5,44.1,82z"/>
<path class="st0" d="M65.1,56.9c0,0,0,0.1,0,0.1C65.1,56.9,65.1,56.9,65.1,56.9z"/>
<path class="st0" d="M44.1,84L44.1,84L44.1,84C44.2,84.1,44.2,84,44.1,84z"/>
<path class="st0" d="M51.8,73.9c0,0.1,0.1,0.2,0.1,0.3C51.8,74.1,51.8,74,51.8,73.9z"/>
<path class="st0" d="M53.8,71.9L53.8,71.9C53.8,72,53.8,72,53.8,71.9z"/>
<path class="st0" d="M51,76.6C50.9,76.6,50.9,76.4,51,76.6c-0.1,0.1-0.1,0.1-0.1,0.1C50.9,76.6,50.9,76.5,51,76.6z"/>
<path class="st0" d="M49.9,78.1c0,0.1,0,0.1,0,0.1L49.9,78.1C50,78.1,49.9,78.1,49.9,78.1z"/>
<path class="st0" d="M28.7,88.4c0-0.2-0.1-0.5-0.1-0.8C28.7,88.3,28.6,88.7,28.7,88.4z"/>
<path class="st0" d="M65.1,56.5c0,0.2,0,0.3,0,0.4c0,0,0-0.1,0-0.1C65.1,56.6,65.1,56.5,65.1,56.5z"/>
<path class="st0" d="M51.9,83.3l-0.2,0.1C51.7,83.5,51.8,83.4,51.9,83.3z"/>
<path class="st0" d="M36.4,89L36.4,89C36.3,89.1,36.4,89.1,36.4,89z"/>
<path class="st0" d="M51.2,84.3C51.1,84.1,51,84,51,83.9c0,0.1,0,0.1,0,0.3L51.2,84.3z"/>
<path class="st0" d="M28.6,87.7L28.6,87.7L28.6,87.7z"/>
<path class="st0" d="M28.1,91c0.1-0.2-0.1-1.2-0.2-1.9c0.1-0.6,0.2,0.7,0.3,1.2c0.1-0.4,0-1.6,0.1-1.6c0,0.2,0.1,0.2,0.1,0.5
	c0-1.1,0.3-0.4,0.3-1.8c0,0.1,0,0.2,0,0.3c-0.1-0.6-0.1-1.2-0.2-1.6c0.1-0.1,0.1-0.9,0.2-0.1c0,0,0,0.3,0,0.6l0-0.4
	c0.2,1-0.1,0.5,0,1.3c0.1-0.5,0.2-1.6,0.3-1.4c0.1,1.1-0.2,0.6,0,1.4l-0.2-0.3c0.3,1.6-0.1,0,0.2,1.7c0.2,0.1,0.2-0.8,0.4-0.6
	c0-0.6-0.1-0.9-0.1-1.5c0.2-1.4,0.4,2.6,0.5,1c0-0.8,0-2.2,0.2-1.5v1.3c0.2,0,0-1.9,0.3-1.1c0,0.5-0.1,0.5-0.1,0.6
	c0.2,0.9,0.1-0.8,0.2-0.8l0.1,1.1c0.2-0.2,0.4-1.1,0.7-1.3c0,0.3-0.1,0.7,0,1c0.3-0.6,0.7,0.2,1,0.9l0.1-0.9c0,0,0,0.5,0,0.6
	c0.1,0.4,0-0.6,0.1-1c0.1,0,0.1,0.6,0,0.9c0.2-0.8,0.7-1.5,0.9-0.4l-0.1,0.3c0.2,0.5,0.3-1.9,0.4-0.9l0,0.2c0.4,0.6,0.9,0,1.1,1.6
	c0.1-1.4,0.4,0.8,0.5-1.1c0.2,1.1,0.1,1.4,0.4,2.2c0.1,0.1,0.2-1.2,0.3-1.3l0,1l0.2-1l0,1.3l0.1-0.2c0-0.1-0.1-0.5-0.1-0.8
	c0.2-0.4,0.4,0.9,0.4,1.4l0.4-0.7c0,0.4-0.1,0.5-0.2,0.8c0.2-1,0,1.1,0.2,0.2c0-0.2,0-0.6,0-0.8c0.1,0.7,0.3,0.7,0.5,0.5l-0.1,0.7
	c0.3,0.3,0.6-0.1,1,0c-0.1-0.4-0.1-1.6,0-1.7l0,1.1c0.1-0.7-0.1-0.4,0.1-1.2c0.1,0.2,0.1,1.3,0,1.6l0.2-0.3c0,0.3,0,0.5-0.1,0.9
	c0.1-0.7,0.2,1.1,0.4,0V91c0.3,0.1,0.5-0.3,0.8-0.3c0-0.9,0.1-0.7,0.2-1.5c0.2,0.3,0.4,1.1,0.6,1c0.2-0.5,0.1-0.8,0.1-1.3
	c0,0.9,0.2,0.8,0.1,1.4c0.3-0.1,0.4-0.1,0.7-0.9c0-0.3-0.1-0.5-0.1-0.8c0.1-0.1,0.1,0.4,0.1,0.8l0,0.1c0.4-1.3,1,2.4,1.3,0.6l0,0.1
	l0.3-1c0.2,0.1-0.1,0.7,0,1.2c0.3-1.5,0.6,0,0.9-1c0.3,2.4,0.8-0.5,1.2,0.9l0-0.6c0.1-0.6,0.1,0.3,0.2,0.4c0-0.4-0.1-0.5-0.1-0.8
	c0.6-1.1,1.5-0.1,2.2-0.3c0.3-0.1-0.1-3.1,0.3-2l0,1.1c0.4-1.8,1-1.1,1.4-2.7c0,0.3,0,0.6,0,0.6c0.2,0.6,0.4-0.4,0.3-1
	c0.1,0,0.1,0.5,0.2,0.8c0.2,0.3,0.1-1.3,0.3-0.6c0,0.1,0,0.3,0,0.4c0-0.4,0.3-0.3,0.1-1.1c0.2,0.2,0.3-0.8,0.5-0.5
	c0-1.1,0.4,0,0.2-1.4c0.2,1.4,0.5,0.7,0.5-0.1c0,0.5,0.2,0.3,0.2,0.9c0.1-0.2,0.2-0.6,0.1-1.3c0.5,1.3,0.3-2,0.7-0.1
	c0.3-1.3,0.5-2.3,0.8-3.2c0.2,1.4-0.3,0.7-0.1,2.1c0.2-1.1,0.2-2.5,0.6-2.7c0.1,0,0,0.7,0.1,0.9c0.2-1.1,0.6-0.9,0.8-2.1
	c0,0.1,0,0.3,0,0.5c0-0.1,0.2,0,0.1-0.6l0,0.3c-0.2-0.7-0.1-2.2-0.2-2.7c0.2,1.9,0.3,0,0.5,2.4c0-0.2,0-0.5-0.1-0.9
	c0.1,0,0.1,0.2,0.1,0.8c0.1-0.7,0-1.2,0.1-1.5c0,0.3,0,0.5,0.1,0.8c0-0.7,0-1.4,0.2-1.5c0,0.2,0.1,0.4,0,0.5
	c0.2-0.5,0.2-2.2,0.5-2.2c0.1,1.4,0.2,0.2,0.4,1.3l0.1-0.6l-0.1-0.4c0.1-0.2,0.1-1.2,0.3-1l0,0.6l0.2-0.6l-0.2-0.2
	c0-0.8-0.2-1.4,0-1.4c0,0.2,0.1-0.2,0.3,0.3l0,0c0-0.5,0-0.9,0.1-0.8c0.1,0.3,0.2,1.2,0.2,1.4c-0.1-1,0.3-0.8,0.2-1.9
	c0,0.3,0.1,0.8,0.1,1l-0.1-0.8c0.1,0.1,0.1,0.2,0.2,0.7c0.2-0.2-0.3-1.3,0-1.1c0,0.1,0,0.2,0,0.4c0.3-0.1,0.3-1.2,0.6-1.2
	c0.2,1-0.1,0.6,0.1,1.4c0.2-0.7,0.4-2.4,0.7-2.6l-0.1,0c-0.2-1.6,0.3,0.4,0.3-0.6c0,0.2,0.1,0.9,0.1,0.7c0.2-0.1,0.3-1.1,0.5-2.1
	l0,0.5c0.2,0.1,0.3-0.3,0.5-0.4c0-0.5,0-0.5-0.1-1c0.8,1.5,0.5-2.5,1.1-1.2c0,0.1,0,0.5,0,0.5l0.2-0.9c-0.1-0.6-0.1-0.3-0.3-0.7
	c0-0.5,0-0.9,0.1-1c0,0.7,0.2,1.1,0.3,1.3c0-0.2-0.1-0.4-0.1-0.6c0.4,0.9-0.2-1.4,0.1-1l0.1,0.4c0-0.3,0-0.9,0.1-1
	c0.2,0.7,0,0.5,0.1,1.1c0.1-0.3-0.1-1.9,0.2-1.3c0,0.3-0.1,0.4-0.1,0.7c0.3,0.7,0.2,0.4,0.3,0.4h0l0.3,0l-0.1-0.1
	c-0.2-2.2,0.2-0.9,0.1-2.6c0.1,1.6,0.1,0.8,0.3,1.6c0.1,0.1,0.2,0.3,0.2,0.5c0-0.9,0.2,0.3,0.2-1c0.1,0.3,0.1-0.2,0.2,0.6
	c0.1-0.4-0.1-0.4-0.2-0.8c0-1.3,0.6,0.3,0.6-1.5c0.1-1,0-2,0.1-2.8c0.2,0.3,0.1,1.1,0.1,1.1c0.2,0.2,0.2-0.1,0.3-0.6
	c0,0.3,0.1,0.4,0.2,0.7c0.1-0.2-0.1-1.1,0-0.9c0,0.3,0.1,0.9,0.1,1.3c0-0.5,0-1.2,0.1-1.6c0.1,0.4,0.1,0.8,0.1,1.2
	c0.1-0.5,0.2-1,0.1-1.9l-0.1-0.1c0-0.1,0.2,0.6,0.1,0.8c0,0.8-0.2,0-0.2-0.2l0-0.3c-0.4-1.4-0.2,0.9-0.4,1.1l-0.2-1.3l0.1,1.3
	c-0.1-0.2-0.2-0.8-0.2-1.2c-0.2-0.4,0,0.6-0.2,0.1c0-0.1,0-0.1,0-0.2l0,0.6c0-0.3-0.2-0.8-0.1-0.7c-0.3-0.3-0.1,1.5-0.3,0.7v-0.1
	c-0.2,0.9,0.1,0.9,0.2,2.3l-0.5-1.8l0.1,0.9c0,0-0.1,0.1-0.2-0.3c0,0.8,0.1,0.3,0.1,1c-0.3-0.5-0.3,1.1-0.6-0.3
	c0.1,0.7,0.2,0.3,0.2,1c-0.3-1.4-0.1,0.6-0.3,0.1c-0.1-0.8,0.1-0.6-0.2-1.1c0.2,1.4-0.3,0.2-0.3,0.6c0.2,1-0.1,0.8-0.2,1.5
	c-0.1-0.4-0.4,0-0.6-0.1l0-0.2c0.2,1.1,0,1.2-0.1,1.6C61.1,59.3,61,59,61,58.6l-0.1,0.2c0,0.4,0,0.6,0,0.9l-0.1-0.8
	c-0.1,0.3-0.1,1.5-0.4,1.3c0.1,0.8,0.5,1.8,0.4,2.6c-0.1-0.4-0.2-1.1-0.2-1.3c0,0.1,0,0.4-0.1,0.3l0-0.8c-0.1-0.1,0.1,0.6,0,0.7
	c-0.1-0.6-0.1-0.3-0.2-0.8c0-0.1,0.1,0.1,0.1-0.1c-0.1,0-0.2-0.1-0.3-0.5c0.1,0.3,0.1,0.8,0.1,0.9c-0.1,0.3-0.2-0.6-0.3-0.7
	c0,0.5-0.1,0.2,0,1.1c0,0.1-0.1-0.3-0.2-0.5c0,0.5-0.3,0.7-0.1,1.5l0,0c0,0,0,0,0,0.1l0,0l0,0c-0.1,1.3-0.6,0.5-0.8,1.3l-0.1-0.3
	c-0.1,0.6-0.3,0.8-0.3,1.6c0,0.1-0.2-0.3-0.2-0.7c-0.1,0.4,0,0.8-0.3,0.6c0-0.7-0.1-0.4,0.1-0.6c-0.2,0-0.3-0.4-0.3,0.7
	c-0.1-0.8-0.3-0.7-0.3-0.4l0.2,0.3c-0.1,0.2-0.1,0.3-0.2,0.4l-0.1-1c-0.5-0.6-0.2,3-0.7,1.4c0,0.8,0.2,0.2,0.3,1.1
	c-0.2,0.1-0.5-1-0.6-1c-0.3-0.2,0.1,1.7-0.2,1.7c0.1,0.3,0.3,1.2,0.2,1.8c-0.2,0.1-0.4-1.2-0.4-1.6c0-0.1,0.1,0,0.1,0.1
	c0-0.2,0.1-0.5-0.1-0.7l0,0.4c-0.1-0.2-0.3,0.1-0.4-0.5c0,0.5,0.1,0.6,0.2,0.7c-0.3-0.2-0.3,0.5-0.5,0.5c0.1,0.1,0.2,0.5,0.1,0.5
	c-0.3,0,0,0.9-0.2,1.3c-0.2-0.3-0.2-1.3-0.3-0.6c-0.2-0.2-0.2-0.9-0.2-1.2c-0.1,1-0.4,0.1-0.5,0.1l0-0.4c0,0.3-0.1,0.3-0.1,0.4
	l0.2,0.6c-0.1,0-0.1,0-0.2-0.2c0,0.5,0.2,1.1,0.2,1.9c-0.1-0.2-0.1,0.7-0.3-0.1c0.3-0.1-0.2-0.9,0-1.4c0,0.2-0.1,0.2-0.1,0.2
	c0-0.1,0-0.2,0-0.3c-0.3-0.5,0.1,1.2-0.1,1.5c-0.1-0.6-0.2-0.9-0.2-0.7c0.1-0.1,0.2,0.8,0.2,1.3c-0.2-0.2-0.1,0.6-0.2,0.6l0.1,0
	c0.1,0.6,0,0.6-0.1,0.9c-0.1-0.4,0-0.4,0-0.5c0,1.1-0.4-0.5-0.4,0.3c-0.1-0.2-0.2-1-0.3-1.1c-0.1,1-0.3-0.4-0.4,0.4
	c0.2,0.6,0.1,0.4,0.1,1.3l0.2-1l0,1.3c0.1-0.1,0.1-0.7,0.2-0.7c0,0.7,0,0.5,0.1,1c-0.3-0.9-0.1,1-0.4,0.5l-0.3-1.7
	c-0.3-0.4-0.2,1.5-0.5,1.5l0.1,0.2c0.1,0.8-0.1,0.4-0.2,0.8c-0.1-0.6-0.2-0.7-0.3-1c0.1,0.4-0.2,0.3,0,1.5l-0.2-0.6
	c-0.3,0,0,2.1-0.2,2.2c0-0.7-0.2-1-0.1-1.7c-0.1,0.1-0.1,0.1-0.1,0.5c-0.1-0.3-0.1,1.1-0.2,0.6c0,0.3,0.1,0.9,0,1c0-0.1,0-0.3,0-0.3
	c0,0.3-0.1,0.6,0.1,1.1c-0.5-1.5-0.6,1-1-0.4c-0.1,0.4-0.3,0.8-0.4,1.1c0-0.2,0-0.3,0-0.3c-0.3-0.3,0.1,1.9-0.2,1.5
	c-0.2-0.9,0.1-0.7-0.1-1c-0.3-2-0.2,0.6-0.5-0.4l0-0.2c-0.2-0.5-0.2,1.1-0.4,1.2c0,0,0-0.2,0-0.3c0,1.2-0.2,1.8-0.4,2.3
	c0-0.9,0-0.5-0.1-1.3c-0.1,0.2,0.2,1.3,0,1.7c-0.1-0.4-0.2-0.7-0.3-1.5l0.1-0.2c-0.2-1.1-0.2,0.2-0.3,0.1l0-0.5
	c-0.2,0.4-0.1,1.6-0.4,1.8l0.1,0.4c0,1.4-0.2-0.6-0.2,0.5l-0.1-1.2c-0.1,0.4-0.2,1.5-0.4,1.9c0-1,0.2-1.7,0.3-2.3
	c-0.1,0.1-0.3,0.3-0.3,1c0-0.2,0.1-0.5,0.1-0.3c0,1.1-0.1,1.7-0.3,1.8c-0.1-2.5-0.5-0.3-0.8-2.2c-0.3,1.1-0.6-0.1-1,0.2
	c0.2,1.9-0.1,0.1,0,2.1c-0.1,0.2-0.1,0.1-0.1,0l-0.3-1.1c-0.1-0.6,0.1-0.5,0-0.9c-0.2-0.1-0.1-0.8-0.2-1.3c0,0.7,0,1.1-0.1,0.8
	l0.2,0.9c-0.2,1.2-0.3-1.6-0.5-0.5l0.1-0.7c-0.1,0.4-0.5,0.1-0.6,1.7c0-0.2-0.1-0.8,0-0.9c-0.3-0.2-0.7,1.8-1,0.8l0-0.5
	c-0.1,0.1-0.1,0.9-0.2,0.4c0-0.2,0-0.5,0-0.5c0,0.2-0.2,0.9-0.2,0.6l0.1-0.6c-0.3-0.7-0.5,1.3-0.8,1.6c0-1.5-0.2-2-0.4-2.2l0-0.2
	c-0.4-0.2-0.7,1.1-1,1.6c-0.2-1.6-0.7-0.9-1.1-1.9c0,0.3,0,1.1-0.1,1.3c-0.1-0.3-0.3,0.9-0.2-0.4l0,0c0-1.3-0.2-1-0.3-1.1l-0.1,1.7
	c-0.3-2.7-1,0.6-1.1-1.8c-0.1,0.4-0.2,0.4-0.3,0.7l0-0.9c-0.2-0.3-0.3-0.5-0.6-0.4l0.1-0.6c-0.2-0.1-0.3,2.6-0.5,2.6l0-1.4
	c-0.3-0.1-0.5-1.5-0.9-0.4c0-0.2,0-0.6,0.1-0.6c-0.1-0.1-0.5-1.2-0.5,0.7c0-1.2-0.3-0.3-0.5,0.2l0.1-0.9c-0.2,1.1-0.2,1.4-0.4,1.7
	c0-0.1,0-0.8,0-0.5c-0.1-0.5-0.1,0.8-0.3,0.3l0.1-0.6c-0.2-0.1-0.2,0.2-0.3,0.9c-0.1,0.3-0.3-0.3-0.3-1.2c0,0.5-0.1,1.2-0.2,0.9
	c0-0.3,0-0.5,0-0.6c-0.3-0.7-0.4,1-0.6,0.1c0-0.3,0-0.5,0-0.6c0.2,0,0.4,0.1,0.4,0.2c0-0.9-0.2-1,0-2.2c-0.2,0.6-0.4,2-0.6,1.6
	c0-0.1,0-0.2,0-0.3l0-0.1c0-0.1-0.1,0-0.1,0.1c-0.1-0.1-0.1-0.2-0.1-0.2c0-0.7-0.2-0.4-0.3-0.4c0,0.9-0.1,0.8,0,1.5
	c0-0.1,0-0.1,0.1-0.2c0,0,0,0,0-0.1c0,0,0,0.1,0,0.1c0.1,0,0.1-0.1,0.2-0.1c-0.1,0.5-0.1,0.9-0.2,0.4c0,0.6-0.1,1.2-0.1,1.5
	c-0.1-1.3-0.4-1.9-0.5-2.7c-0.3,0.6-0.6,0.6-0.7,2.5c-0.1,0.3-0.1-0.4-0.2-0.7c0-0.2,0.1-0.2,0.1-0.5c-0.1,0.5-0.4,0.5-0.4,1.7
	c-0.2-0.4,0-1.2-0.2-0.8l0-0.4c-0.3-0.7-0.5,0.2-0.6,1.1c-0.1,0.9-0.3,1.7-0.7,0.9c0.1,0.1,0.1,0.1,0.1,0.3
	c-0.4-0.1-0.6,0.6-0.9,1.2c-0.3,0.7-0.5,1.3-0.9,1.1c-0.2,0-0.1,0.7-0.1,1.4l-0.2-0.7l0.1,1.3c0,0.6-0.2,0.3-0.4,0.2
	c-0.2-0.1-0.4-0.2-0.4,0.8l0.2,0.4c-0.1,0.2-0.2,1.1-0.3,0.5c0,0.1,0.1,0.6,0,0.4l-0.1-0.4l0,1.3c-0.2,0.3-0.4-1.5-0.7-0.8
	c0,0.5,0.1,1.9,0.2,2c0-0.1,0.2-0.1,0.3,0.2l0,0.4c0.3,1.1,0.7,2.2,1.1,2.4l-0.1-1l0.2,0.4l-0.1,0.4c0.2,0.3,0.1-0.2,0-0.7
	c0.1,0.2,0.2,0.4,0.2,0.4c-0.1-0.5-0.1-0.9-0.2-1.4c0.1,0.4,0.2,1,0.4,1c-0.1-0.7-0.3-0.8-0.4-1.4c0.2,0.3,0.3,0.8,0.2,0.2
	c0.1,0.3,0.1,0.5,0.1,0.7c0-0.5,0.1-0.6,0-1.3c0.2,0.5,0.2-0.8,0.4,0.4c-0.1-0.3-0.1-1.2-0.1-1.4c0.2,1.6,0.2-0.5,0.6,1.1
	c-0.2-1.5,0.2-1.2,0.2-2.3c0,0.1,0,0.4,0,0.3c0.1-0.1,0.2,0.3,0.3,0.4c-0.2-1.1-0.1-1.6-0.1-2.5c0.3,0.9,0.2,1.5,0.4,2.4
	c-0.2-0.9,0-1.2-0.1-2c0.2,0.5,0.1,0.2,0.3,1.1c-0.2-1.5,0-0.4,0-1.4c0.2,0.5,0.2,1.3,0.3,0.7C28.1,90.2,28.1,90.9,28.1,91L28.1,91z
	 M31.3,85.7L31.3,85.7C31.2,85.8,31.2,85.8,31.3,85.7C31.2,85.8,31.2,85.8,31.3,85.7z M31.6,85.7c0,0-0.1,0-0.1,0c0-0.3,0-0.7,0-0.6
	C31.5,85.2,31.5,85.4,31.6,85.7z M30.8,79.3c0.1-0.1,0.1,0,0.1,0.2c0,0-0.1,0.1-0.1,0.1c0,0,0,0.1,0,0.1
	C30.8,79.6,30.8,79.4,30.8,79.3L30.8,79.3z"/>
<path class="st0" d="M30.6,80.5C30.6,80.5,30.6,80.6,30.6,80.5c0,0.2,0,0.2,0,0.3C30.6,80.7,30.6,80.6,30.6,80.5
	C30.6,80.5,30.6,80.5,30.6,80.5z"/>
<path class="st0" d="M59.8,62.6L59.8,62.6C59.8,62.6,59.8,62.6,59.8,62.6C59.8,62.6,59.8,62.6,59.8,62.6z"/>
<polygon class="st0" points="36,89.3 36,89 35.9,89.2 "/>
<path class="st0" d="M61.9,62.3c0,0.1,0,0.1,0.1,0.2C62,62.4,61.9,62.3,61.9,62.3z"/>
<path class="st0" d="M62.6,61.1l0.2,0.1C62.7,61.1,62.7,61.1,62.6,61.1z"/>
<path class="st0" d="M63.3,60.4c0-0.2,0-0.3-0.1-0.4l0,0L63.3,60.4L63.3,60.4z"/>
<path class="st0" d="M54.7,77.4C54.7,77.4,54.7,77.4,54.7,77.4C54.7,77.7,54.7,77.6,54.7,77.4z"/>
<path class="st0" d="M57,70.8c0,0.2,0,0.4,0,0.5C57.1,71.3,57.1,71.3,57,70.8z"/>
<path class="st0" d="M51.9,83.3C51.9,83.3,51.9,83.3,51.9,83.3C51.9,83.3,51.9,83.3,51.9,83.3L51.9,83.3L51.9,83.3z"/>
<path class="st0" d="M56.9,71.6c0.1,0.1,0.1,0,0.1-0.2C57,71.4,56.9,71.4,56.9,71.6z"/>
<path class="st0" d="M65.6,55.9L65.6,55.9c0,0,0-0.1,0-0.2L65.6,55.9L65.6,55.9z"/>
<path class="st0" d="M65.6,55.8l0-0.2C65.6,55.6,65.6,55.7,65.6,55.8z"/>
<path class="st0" d="M65.7,55.3l0,0.3C65.7,55.6,65.7,55.6,65.7,55.3z"/>
<path class="st0" d="M64.9,57.1l0,0.3C64.9,57.3,64.9,57.2,64.9,57.1z"/>
<path class="st0" d="M64.7,57.6c0.1,0,0.2,0.3,0.3,0l0-0.2C65,57.9,64.6,57,64.7,57.6L64.7,57.6z"/>
<path class="st0" d="M63.1,55.9l0.2-0.1c-0.1-0.2-0.2-0.6-0.1-0.8C62.8,54.5,63.3,55.6,63.1,55.9z"/>
<path class="st0" d="M62.4,56.6c0.1-0.3-0.1-0.4-0.1-0.6C62.3,56.4,62.3,56.5,62.4,56.6z"/>
<path class="st0" d="M58.4,64.3l-0.1-0.8C58.2,63.8,58.3,63.8,58.4,64.3z"/>
<polygon class="st0" points="58.3,69.6 58.4,69.9 58.3,69.1 "/>
<polygon class="st0" points="56.9,65.1 56.9,64.9 56.8,65.4 "/>
<path class="st0" d="M50,77l0.1,0.9C50.2,77.7,50.1,76.6,50,77z"/>
<path class="st0" d="M47,81.6c-0.1-0.5-0.2-0.7-0.2-0.2C46.9,81.5,47,81.8,47,81.6z"/>
<polygon class="st0" points="37.2,81.3 37.3,81 37.1,81.2 "/>
<g>
	<path class="st1" d="M45.4,84c-1,0.2-2.1,0.4-3.2,0.5c-1.1,0.1-2.3,0.2-3.6,0.2c-4.6,0-8.2-1-10.6-2.9c-2.5-1.9-3.7-4.8-3.7-8.6
		c0-2.6,0.6-4.7,1.8-6.3c1.2-1.7,2.9-2.9,5-3.7c2.1-0.8,4.6-1.2,7.5-1.2c1.2,0,2.4,0.1,3.5,0.2c1.1,0.1,2,0.3,2.9,0.6l0.3,5.6
		c-2-0.6-4.1-0.9-6.2-0.9c-2.5,0-4.4,0.5-5.7,1.5c-1.3,1-2,2.5-2,4.4c0,2,0.6,3.6,1.8,4.6c1.2,1,2.9,1.5,5.1,1.5
		c0.5,0,0.9,0,1.3-0.1v-3c0-0.5,0-1.1-0.1-1.6c0-0.5-0.1-1-0.1-1.6l6.1,0V84z"/>
	<path class="st1" d="M49.9,65.7c0-0.5,0-1.1,0-1.7c0-0.6-0.1-1.2-0.2-1.8h7.1c-0.1,0.6-0.2,1.2-0.2,1.8c0,0.6,0,1.2,0,1.7v13.8h4.6
		c0.8,0,1.5,0,2.3,0c0.8,0,1.5-0.1,2.2-0.1v4.9H49.7c0.1-0.6,0.2-1.2,0.2-1.7c0-0.6,0-1.1,0-1.7V65.7z"/>
</g>
</svg>
