<?xml version="1.0" encoding="utf-8"?>
<!-- Generator: Adobe Illustrator 26.5.1, SVG Export Plug-In . SVG Version: 6.00 Build 0)  -->
<svg version="1.1" id="Layer_2_00000103964240864801977910000018196007251107038126_"
	 xmlns="http://www.w3.org/2000/svg" xmlns:xlink="http://www.w3.org/1999/xlink" x="0px" y="0px" viewBox="0 0 124.8 40.6"
	 style="enable-background:new 0 0 124.8 40.6;" xml:space="preserve">
<style type="text/css">
	.st0{fill:#928661;}
	.st1{enable-background:new    ;}
	.st2{fill:#5A4088;}
</style>
<g id="Layer_1-2">
	<g>
		<g>
			<path class="st0" d="M124.8,2.9c-0.1-0.2-0.5-0.7-0.6-0.5l0.4,0.9L124.8,2.9L124.8,2.9z"/>
			<path class="st0" d="M122.7,2.1c0.1,0.5,0.3,1.4,1,2c-0.3-0.9-0.1-0.6-0.5-1.7c0.1-0.2,0.5,0.1,0.6,0.4c-0.1-0.2,0.4,0,0.1-0.6
				c-0.6-0.5-0.9-0.3-0.8,0.4C122.9,2.5,122.8,2.2,122.7,2.1z"/>
			<path class="st0" d="M106,10.6l0.2,0C106.1,10.6,106,10.6,106,10.6z"/>
			<path class="st0" d="M95.6,15.8c0.1-0.1,0.1-0.2,0-0.2C95.6,15.7,95.5,15.8,95.6,15.8z"/>
			<path class="st0" d="M93.3,15.8c0.1,0,0.1,0,0.1,0C93.4,15.8,93.3,15.7,93.3,15.8z"/>
			<path class="st0" d="M106,10.6l-0.4-0.1C105.7,10.8,105.8,10.6,106,10.6z"/>
			<path class="st0" d="M121.9,5.5c0-0.1,0-0.2,0-0.3c0,0.1-0.1,0.1-0.1,0.2C121.8,5.5,121.9,5.5,121.9,5.5L121.9,5.5z"/>
			<path class="st0" d="M110,7.4L110,7.4c0.1-0.2,0-0.3-0.1-0.4L110,7.4z"/>
			<path class="st0" d="M113.2,5.2c-0.1,0,0.3,0.8,0.5,1.1c-0.1-0.3-0.2-0.5-0.1-0.6C113.5,5.6,113.4,5.4,113.2,5.2L113.2,5.2z"/>
			<path class="st0" d="M119.3,3.2l0-0.2C119.3,3,119.3,3.1,119.3,3.2z"/>
			<path class="st0" d="M107.5,8.6c-0.1-0.1-0.1-0.2-0.2-0.2C107.4,8.5,107.4,8.6,107.5,8.6z"/>
			<path class="st0" d="M7.4,38.5c0,0-0.1-0.1-0.1-0.1C7.4,38.5,7.4,38.5,7.4,38.5z"/>
			<path class="st0" d="M1.5,38.5L1.5,38.5c-0.1-0.2-0.2-0.3-0.4-0.4C1.1,38.1,1.5,38.5,1.5,38.5z"/>
			<path class="st0" d="M89.6,16.6C89.6,16.6,89.6,16.6,89.6,16.6C89.7,16.5,89.6,16.5,89.6,16.6z"/>
			<path class="st0" d="M60.1,28.2c0.5,0.7-0.5,1,0.2,1.8C60.2,29.7,60.6,28.7,60.1,28.2z"/>
			<path class="st0" d="M121.8,5.5c0,0-0.1,0.1-0.1,0.1C121.7,5.6,121.7,5.5,121.8,5.5z"/>
			<path class="st0" d="M60.2,30L60.2,30L60.2,30C60.3,30.1,60.3,30.1,60.2,30z"/>
			<path class="st0" d="M82.6,20.9c0.1,0.1,0.2,0.2,0.2,0.3C82.8,21.1,82.7,21,82.6,20.9z"/>
			<path class="st0" d="M88.6,19.1l-0.2,0C88.5,19.1,88.5,19.1,88.6,19.1z"/>
			<path class="st0" d="M80.2,23.3c-0.1,0-0.2-0.1-0.2,0c0,0,0.1,0.1,0.1,0.1C80.1,23.3,80.1,23.2,80.2,23.3z"/>
			<path class="st0" d="M77.2,24.7c0,0,0.1,0.1,0.1,0.1l0.1-0.1C77.4,24.7,77.2,24.7,77.2,24.7z"/>
			<path class="st0" d="M14.9,34c-0.1-0.2-0.2-0.4-0.4-0.7C14.8,33.9,14.5,34.2,14.9,34z"/>
			<path class="st0" d="M121.6,5.1c0.1,0.2,0.1,0.3,0.1,0.4c0,0,0.1-0.1,0.1-0.1C121.8,5.3,121.7,5.2,121.6,5.1z"/>
			<path class="st0" d="M82.9,29.4l-0.6,0.1C82.5,29.5,82.7,29.5,82.9,29.4z"/>
			<path class="st0" d="M37.4,34.5l-0.1,0.1C37.3,34.6,37.4,34.6,37.4,34.5z"/>
			<path class="st0" d="M80.9,30.3c-0.2-0.2-0.4-0.4-0.5-0.4c0,0.1,0,0.1,0,0.2L80.9,30.3z"/>
			<path class="st0" d="M14.6,33.3L14.6,33.3L14.6,33.3z"/>
			<path class="st0" d="M12.5,36.3c0.4-0.2-0.3-1.1-0.4-1.7c0.4-0.5,0.6,0.6,0.9,1.1c0.2-0.4,0-1.4,0.3-1.5c0.1,0.2,0.1,0.2,0.2,0.4
				c0-1,0.9-0.4,1-1.6c0.1,0.1,0.1,0.2,0.1,0.2c-0.2-0.5-0.4-1-0.5-1.4c0.2-0.1,0.2-0.8,0.5-0.1c-0.1,0-0.1,0.3-0.1,0.5l0.1-0.4
				c0.5,0.9-0.2,0.4,0.1,1.2c0.3-0.4,0.6-1.4,1-1.2c0.3,1-0.6,0.5,0,1.3L15,33c0.8,1.4-0.3,0,0.5,1.5c0.7,0.1,0.5-0.7,1.2-0.6
				c0-0.6-0.2-0.8-0.2-1.4c0.7-1.2,1.2,2.3,1.6,0.9c0-0.7-0.1-2,0.5-1.4v1.2c0.6,0,0.1-1.7,0.9-1c-0.1,0.5-0.4,0.4-0.3,0.6
				c0.5,0.8,0.2-0.7,0.5-0.7l0.2,1c0.6-0.2,1.3-1,2.1-1.2c0,0.3-0.2,0.6,0,0.9c0.9-0.5,2,0.2,2.9,0.8l0.4-0.8c0.1,0,0.1,0.4,0,0.6
				c0.3,0.4,0.1-0.6,0.3-0.9c0.2,0,0.2,0.5,0.1,0.8c0.7-0.7,2.1-1.4,2.6-0.4l-0.2,0.2c0.5,0.4,0.9-1.7,1.3-0.8l-0.1,0.1
				c1.1,0.5,2.6,0,3.4,1.4c0.4-1.2,1.2,0.7,1.5-1c0.6,1,0.3,1.2,1.3,2c0.3,0.1,0.5-1,0.9-1.2l-0.1,0.9l0.6-0.9l0.1,1.1l0.3-0.2
				c-0.1-0.1-0.2-0.5-0.2-0.7c0.5-0.3,1.1,0.8,1.1,1.3l1.2-0.6c-0.1,0.4-0.3,0.5-0.5,0.7c0.7-0.9,0,1,0.7,0.2c0-0.2,0.1-0.5,0.1-0.7
				c0.2,0.6,0.9,0.7,1.4,0.5L41,35.7c0.8,0.3,1.9-0.1,2.8,0c-0.3-0.3-0.2-1.4,0.1-1.5l0,1c0.2-0.6-0.3-0.4,0.2-1.1
				c0.3,0.1,0.2,1.1-0.1,1.4l0.5-0.3c0,0.3-0.1,0.4-0.2,0.8c0.2-0.6,0.7,1,1,0v0.3c1,0.1,1.5-0.2,2.3-0.2c0.1-0.8,0.4-0.6,0.6-1.3
				c0.6,0.3,1.2,1,1.9,0.9c0.5-0.4,0.2-0.7,0.4-1.2c0,0.8,0.7,0.7,0.4,1.2c0.9-0.1,1.1-0.1,2.2-0.8c-0.1-0.3-0.2-0.5-0.2-0.7
				c0.2-0.1,0.4,0.3,0.4,0.7l0,0.1c1.2-1.2,2.9,2.2,3.8,0.5l0,0.1l1-0.9c0.5,0.1-0.2,0.6,0.1,1c1-1.3,1.8,0,2.6-0.9
				c1,2.2,2.4-0.5,3.6,0.8l-0.1-0.5c0.2-0.6,0.3,0.2,0.6,0.3c-0.1-0.4-0.3-0.4-0.2-0.7c1.9-1,4.4-0.1,6.6-0.2
				c0.8-0.1-0.3-2.8,0.9-1.8l0,1c1.2-1.6,3.1-1,4.2-2.4c0,0.2,0.1,0.5,0,0.6c0.6,0.6,1.1-0.4,0.9-0.9c0.2,0,0.2,0.5,0.5,0.7
				c0.5,0.3,0.4-1.1,0.8-0.5c0.1,0.1,0,0.2,0,0.3c0.1-0.4,0.9-0.3,0.4-1c0.7,0.1,0.9-0.8,1.5-0.5c-0.1-1,1.1,0,0.6-1.2
				c0.5,1.3,1.3,0.6,1.4-0.1c0.1,0.4,0.5,0.3,0.6,0.8c0.4-0.2,0.6-0.6,0.2-1.2c1.4,1.1,0.8-1.8,2.1-0.1c0.8-1.2,1.5-2.1,2.3-2.9
				c0.6,1.2-1,0.7-0.3,1.9c0.7-1,0.6-2.3,1.7-2.4c0.3,0,0.1,0.6,0.2,0.8c0.6-1,1.8-0.8,2.2-1.9c0.1,0.1,0,0.3,0,0.4
				c0.1-0.1,0.5,0,0.2-0.5l-0.1,0.2c-0.7-0.6-0.3-2-0.5-2.4c0.6,1.7,1,0,1.6,2.1c0.1-0.2,0-0.5-0.2-0.8c0.2,0,0.4,0.2,0.4,0.7
				c0.4-0.6-0.1-1.1,0.4-1.3c0.1,0.3,0.1,0.4,0.2,0.8c0-0.6-0.1-1.3,0.5-1.3c0.1,0.2,0.2,0.4,0.1,0.4c0.7-0.5,0.5-2,1.6-2
				c0.4,1.3,0.5,0.2,1.1,1.2l0.3-0.5l-0.4-0.4c0.4-0.2,0.3-1.1,0.8-0.9l-0.1,0.6l0.6-0.6L97.2,19c0.1-0.7-0.7-1.2-0.1-1.2
				c-0.1,0.2,0.4-0.2,0.9,0.3l0,0c0-0.4,0-0.8,0.4-0.8c0.2,0.3,0.5,1.1,0.7,1.3c-0.3-0.9,0.8-0.7,0.5-1.7c0,0.2,0.3,0.8,0.4,0.9
				L99.8,17c0.3,0.1,0.4,0.2,0.6,0.6c0.6-0.2-0.8-1.1,0.1-1c0,0.1,0.1,0.2,0,0.3c0.8-0.1,1-1.1,1.7-1.1c0.7,0.9-0.4,0.5,0.3,1.2
				c0.7-0.6,1-2.1,2-2.3l-0.2,0c-0.7-1.4,1,0.4,1-0.5c0,0.2,0.3,0.8,0.2,0.7c0.7-0.1,0.9-1,1.5-1.9l0.1,0.4c0.5,0.1,0.9-0.3,1.4-0.3
				c-0.1-0.4,0.1-0.5-0.3-0.9c2.2,1.4,1.4-2.2,3.3-1.1c-0.1,0.1-0.1,0.5,0,0.4l0.6-0.8c-0.4-0.6-0.3-0.3-0.8-0.7
				c-0.1-0.4-0.1-0.8,0.2-0.9c-0.1,0.6,0.6,1,0.9,1.2c-0.1-0.2-0.2-0.4-0.3-0.6c1.1,0.8-0.7-1.2,0.3-0.9l0.2,0.3
				c0.1-0.3,0.1-0.8,0.3-0.9c0.5,0.6,0,0.5,0.3,1c0.3-0.2-0.2-1.7,0.6-1.2c0,0.3-0.2,0.4-0.2,0.7c0.8,0.6,0.7,0.4,1,0.4h0l0.8,0
				L115,9.2c-0.7-2,0.6-0.8,0.4-2.3c0.2,1.4,0.3,0.7,0.8,1.5c0.3,0.1,0.6,0.2,0.7,0.5c-0.1-0.8,0.7,0.2,0.5-0.9
				c0.2,0.2,0.3-0.1,0.6,0.5c0.2-0.4-0.3-0.4-0.5-0.7c0-1.2,1.8,0.3,1.8-1.3c0.3-0.9-0.1-1.8,0.2-2.6c0.4,0.3,0.4,1,0.4,1
				c0.6,0.2,0.7-0.1,0.8-0.5c0.1,0.2,0.3,0.4,0.5,0.6c0.2-0.2-0.4-1,0.1-0.8c0.1,0.3,0.3,0.8,0.4,1.1c0.1-0.4,0.1-1.1,0.2-1.5
				c0.4,0.4,0.3,0.8,0.3,1.1c0.2-0.4,0.6-0.9,0.2-1.7L122.3,3c0.1-0.1,0.4,0.5,0.4,0.7c0.1,0.7-0.6,0-0.7-0.2l0.1-0.3
				c-1.2-1.3-0.7,0.8-1.1,1l-0.5-1.2l0.2,1.1c-0.3-0.2-0.7-0.8-0.6-1c-0.6-0.3,0,0.5-0.7,0.1c-0.1-0.1-0.1-0.1-0.1-0.2l-0.1,0.5
				c-0.1-0.3-0.5-0.7-0.2-0.7c-0.9-0.3-0.3,1.3-1,0.7V3.5c-0.5,0.8,0.4,0.8,0.5,2.1l-1.6-1.7l0.4,0.8c-0.1,0-0.3,0.1-0.4-0.3
				c0.1,0.7,0.3,0.3,0.4,0.9c-0.8-0.5-0.8,1-1.6-0.2c0.2,0.7,0.6,0.2,0.5,0.9c-0.9-1.3-0.3,0.5-1,0.1c-0.3-0.8,0.2-0.6-0.5-1
				c0.5,1.3-0.8,0.1-0.9,0.5c0.6,0.9-0.4,0.8-0.7,1.3c-0.2-0.3-1.2,0-1.8-0.1L111,6.8c0.5,1-0.1,1.1-0.3,1.5
				c-0.3-0.6-0.4-0.8-0.4-1.2L110,7.3c0.1,0.3,0.1,0.6,0,0.8l-0.3-0.8c-0.4,0.3-0.3,1.3-1.2,1.2c0.4,0.7,1.5,1.6,1.2,2.4
				c-0.2-0.4-0.6-0.9-0.6-1.2c0,0.1,0,0.4-0.2,0.3l-0.1-0.7c-0.4-0.1,0.2,0.6-0.1,0.6c-0.3-0.5-0.4-0.3-0.6-0.7
				c0-0.1,0.3,0.1,0.2-0.1c-0.3,0-0.7-0.1-1-0.4c0.2,0.3,0.4,0.7,0.3,0.9c-0.4,0.3-0.5-0.5-0.9-0.7c0.1,0.4-0.4,0.2,0.1,1
				c-0.1,0.1-0.3-0.3-0.5-0.5c0,0.5-0.9,0.7-0.2,1.4l0.1,0c0,0,0,0,0,0.1l0,0l0,0c-0.3,1.2-1.7,0.4-2.2,1.1l-0.2-0.3
				c-0.2,0.5-0.8,0.7-0.8,1.4c-0.1,0.1-0.6-0.3-0.7-0.6c-0.2,0.4-0.1,0.7-0.8,0.5c0.1-0.6-0.3-0.3,0.2-0.5c-0.5,0-0.9-0.4-0.9,0.6
				c-0.2-0.8-0.8-0.7-0.9-0.4l0.6,0.3c-0.2,0.2-0.4,0.3-0.6,0.3l-0.4-0.9c-1.4-0.6-0.5,2.7-2.2,1.2c0.1,0.7,0.7,0.2,0.9,1
				c-0.5,0.1-1.6-0.9-1.7-0.9c-0.8-0.2,0.2,1.6-0.6,1.5c0.2,0.3,0.8,1.1,0.5,1.6c-0.5,0.1-1.2-1-1.1-1.4c0.1-0.1,0.2,0,0.2,0.1
				c0.1-0.2,0.2-0.4-0.2-0.7l0.1,0.3c-0.4-0.2-0.9,0.1-1.1-0.5c-0.1,0.5,0.2,0.6,0.5,0.6c-0.8-0.2-0.8,0.4-1.5,0.4
				c0.2,0.1,0.5,0.5,0.4,0.5c-1,0,0,0.8-0.5,1.2c-0.6-0.3-0.5-1.2-0.8-0.5c-0.5-0.1-0.5-0.8-0.5-1.1c-0.2,0.9-1.1,0.1-1.4,0.1
				l0.1-0.4c-0.1,0.2-0.2,0.3-0.3,0.4l0.5,0.6c-0.2,0-0.3,0-0.5-0.2c0.1,0.5,0.7,1,0.7,1.7c-0.4-0.2-0.4,0.7-0.9-0.1
				c0.8-0.1-0.5-0.8-0.1-1.2c-0.1,0.1-0.2,0.2-0.4,0.2c-0.1-0.1-0.1-0.2-0.1-0.2c-1-0.4,0.2,1.1-0.4,1.4c-0.2-0.5-0.6-0.8-0.7-0.7
				c0.2-0.1,0.5,0.7,0.5,1.2c-0.6-0.1-0.3,0.5-0.5,0.6l0.3,0c0.2,0.5-0.1,0.6-0.2,0.9c-0.2-0.4,0.1-0.4-0.1-0.5
				c0.1,1-1.1-0.5-1.3,0.3c-0.4-0.2-0.5-0.9-0.8-1c-0.2,0.9-0.8-0.4-1.1,0.4c0.5,0.6,0.4,0.4,0.4,1.2l0.6-0.9l0,1.2
				c0.2-0.1,0.3-0.7,0.5-0.6c0,0.6,0,0.5,0.4,0.9c-0.8-0.8-0.4,0.9-1.1,0.5l-0.8-1.6c-0.9-0.4-0.6,1.4-1.6,1.3l0.4,0.1
				c0.2,0.7-0.4,0.3-0.6,0.7c-0.2-0.5-0.5-0.7-0.8-0.9c0.2,0.4-0.6,0.2-0.1,1.3L81.9,22c-0.8,0,0,1.9-0.7,2
				c-0.1-0.7-0.5-0.9-0.3-1.5c-0.2,0.1-0.4,0.1-0.3,0.5c-0.3-0.3-0.2,1-0.6,0.6c0,0.3,0.2,0.9,0,0.9c-0.1-0.1-0.1-0.3-0.1-0.3
				c0.1,0.3-0.2,0.5,0.3,1c-1.4-1.4-1.7,0.9-2.9-0.3c-0.4,0.4-0.8,0.8-1.2,1c0-0.2-0.1-0.3,0-0.2c-0.8-0.3,0.3,1.7-0.6,1.4
				c-0.7-0.8,0.2-0.6-0.2-0.9c-0.8-1.8-0.7,0.5-1.5-0.4l0.1-0.1c-0.6-0.5-0.6,1-1.1,1c0,0,0-0.2-0.1-0.3c0,1.1-0.7,1.6-1.1,2
				c-0.1-0.8,0.1-0.5-0.2-1.2c-0.2,0.2,0.4,1.2,0,1.5c-0.3-0.4-0.7-0.6-1-1.4l0.4-0.2c-0.5-1-0.6,0.2-0.8,0.1l-0.1-0.5
				c-0.6,0.3-0.3,1.5-1.1,1.6l0.2,0.3c-0.1,1.2-0.5-0.5-0.7,0.4L67.7,28c-0.2,0.3-0.7,1.3-1.1,1.7c0.1-0.9,0.5-1.5,0.8-2.1
				c-0.3,0.1-0.9,0.3-0.9,0.9c0.1-0.1,0.2-0.5,0.3-0.3c-0.1,1-0.4,1.5-1,1.6c-0.4-2.3-1.5-0.3-2.2-2c-0.8,1-1.9,0-3,0.2
				c0.6,1.7-0.3,0.1,0,1.9c-0.2,0.1-0.3,0.1-0.4,0l-0.9-1c-0.2-0.5,0.2-0.4,0.1-0.8c-0.6-0.1-0.3-0.8-0.7-1.2c0.1,0.6-0.1,1-0.4,0.7
				l0.5,0.8c-0.7,1.1-0.8-1.5-1.5-0.5l0.2-0.6c-0.4,0.4-1.5,0.1-1.8,1.6c-0.1-0.2-0.2-0.7,0-0.9c-1-0.2-2.1,1.6-2.9,0.7l0.1-0.5
				c-0.2,0.1-0.3,0.9-0.5,0.4c0-0.2,0.1-0.5,0-0.5c-0.1,0.1-0.5,0.8-0.7,0.5l0.2-0.5c-0.9-0.6-1.5,1.2-2.3,1.5c0-1.3-0.7-1.8-1.1-2
				l0-0.2c-1.1-0.2-2,1-3,1.4c-0.5-1.5-2.2-0.8-3.1-1.7c0.1,0.3-0.1,1-0.3,1.1c-0.2-0.3-0.8,0.8-0.6-0.4l0.1,0c-0.1-1.2-0.6-0.9-1-1
				l-0.2,1.6c-0.8-2.4-2.8,0.5-3.1-1.6c-0.3,0.4-0.6,0.3-0.9,0.7l0.1-0.8c-0.7-0.3-1-0.5-1.9-0.4l0.3-0.6c-0.5-0.1-1,2.3-1.4,2.3
				l0-1.3c-0.8-0.1-1.5-1.3-2.6-0.3c0-0.2,0.1-0.5,0.3-0.6c-0.4-0.1-1.5-1.1-1.6,0.7c0.1-1.1-0.9-0.2-1.4,0.2l0.2-0.8
				c-0.5,1-0.6,1.3-1.2,1.5c-0.1-0.1,0-0.7,0.1-0.5c-0.4-0.5-0.4,0.8-0.9,0.2l0.2-0.5c-0.5-0.1-0.5,0.2-0.8,0.8
				c-0.3,0.3-0.9-0.3-0.9-1c-0.1,0.5-0.4,1-0.6,0.8c0-0.3,0.1-0.5,0.1-0.5c-0.8-0.6-1.2,0.9-1.7,0.1c0-0.3,0-0.4-0.1-0.5
				c0.6,0,1.1,0.1,1.1,0.1c0-0.8-0.5-0.9,0-2c-0.5,0.6-1.2,1.8-1.7,1.5c0-0.1,0-0.1-0.1-0.3l0-0.1c-0.1-0.1-0.2,0-0.3,0.1
				c-0.2-0.1-0.3-0.2-0.4-0.2c-0.1-0.6-0.6-0.3-0.9-0.3c0.1,0.8-0.3,0.7,0.1,1.4c0-0.1,0-0.1,0.2-0.1c0,0,0.1,0,0.1-0.1
				c0,0,0,0,0,0.1c0.2,0,0.4-0.1,0.6-0.1c-0.2,0.4-0.4,0.8-0.7,0.4c-0.1,0.5-0.2,1.1-0.3,1.4c-0.4-1.1-1.2-1.7-1.4-2.4
				c-0.8,0.6-1.9,0.6-2.1,2.2c-0.2,0.2-0.3-0.4-0.5-0.6c0.1-0.2,0.2-0.2,0.3-0.4c-0.4,0.5-1.3,0.4-1.1,1.5c-0.7-0.4,0.1-1.1-0.6-0.7
				l0-0.4c-1-0.7-1.4,0.2-1.8,1c-0.4,0.8-0.8,1.5-2,0.8c0.2,0.1,0.2,0.1,0.3,0.3c-1.1-0.1-1.9,0.5-2.7,1.1c-0.8,0.6-1.6,1.1-2.8,1
				c-0.6,0-0.3,0.6-0.2,1.3l-0.6-0.7l0.2,1.2C5.2,34.3,4.6,34,4,33.9c-0.6-0.1-1.2-0.2-1.1,0.7L3.4,35c-0.3,0.2-0.6,1-1,0.5
				c0,0.1,0.3,0.5,0,0.4l-0.3-0.3l0,1.2C1.3,37,0.8,35.3,0,36c-0.1,0.4,0.3,1.7,0.7,1.8c0.1-0.1,0.5-0.1,0.8,0.2l0,0.4
				c1,1,2,2,3.2,2.1l-0.3-0.9L4.9,40l-0.2,0.3c0.6,0.3,0.3-0.2,0.1-0.6c0.3,0.2,0.5,0.3,0.7,0.4c-0.2-0.4-0.4-0.8-0.6-1.3
				c0.4,0.3,0.6,0.9,1.1,0.9c-0.3-0.6-1-0.7-1-1.3c0.6,0.3,0.9,0.7,0.7,0.1C5.9,38.8,6,39,6.1,39.2C5.9,38.8,6.4,38.7,6,38
				c0.7,0.4,0.5-0.7,1.3,0.3c-0.2-0.3-0.3-1.1-0.2-1.3c0.7,1.5,0.7-0.4,1.6,1c-0.6-1.3,0.5-1.1,0.5-2c0,0.1,0.1,0.3,0,0.3
				c0.3-0.1,0.6,0.3,0.9,0.4c-0.6-1-0.3-1.5-0.4-2.3c0.9,0.8,0.5,1.3,1.1,2.2c-0.5-0.8,0.1-1.1-0.4-1.8c0.6,0.5,0.4,0.2,0.9,1
				c-0.6-1.3,0.1-0.3-0.1-1.2c0.7,0.5,0.7,1.2,0.9,0.6C12.6,35.7,12.5,36.3,12.5,36.3L12.5,36.3z M22,31.6L22,31.6
				c-0.1,0-0.2,0.1-0.2,0.1C21.8,31.6,21.9,31.6,22,31.6z M22.9,31.6c-0.1,0-0.2,0-0.4,0c0-0.3,0-0.6,0.1-0.6
				C22.6,31.1,22.8,31.3,22.9,31.6z M20.7,25.8c0.2-0.1,0.2,0,0.3,0.2c-0.1,0-0.2,0-0.3,0.1c0,0,0,0.1,0,0.1
				C20.6,26,20.6,25.9,20.7,25.8L20.7,25.8z"/>
			<path class="st0" d="M20.4,26.9C20.4,26.9,20.4,26.9,20.4,26.9c0,0.1,0,0.2,0,0.2C20.5,27,20.5,26.9,20.4,26.9
				C20.5,26.9,20.5,26.9,20.4,26.9z"/>
			<path class="st0" d="M106.2,10.7L106.2,10.7C106.1,10.7,106.2,10.7,106.2,10.7C106.2,10.7,106.2,10.7,106.2,10.7z"/>
			<polygon class="st0" points="36.2,34.8 36.2,34.6 36.1,34.7 			"/>
			<path class="st0" d="M112.4,10.4c0.1,0.1,0.1,0.1,0.2,0.1C112.5,10.5,112.5,10.4,112.4,10.4z"/>
			<path class="st0" d="M114.6,9.3l0.4,0.1C114.8,9.3,114.7,9.3,114.6,9.3z"/>
			<path class="st0" d="M116.3,8.7c-0.1-0.1-0.1-0.2-0.2-0.3l0,0L116.3,8.7L116.3,8.7z"/>
			<path class="st0" d="M91.3,24C91.3,24,91.3,24.1,91.3,24C91.2,24.3,91.3,24.2,91.3,24z"/>
			<path class="st0" d="M98,18.1c0,0.2,0,0.4-0.1,0.5C98.2,18.6,98.3,18.5,98,18.1z"/>
			<path class="st0" d="M82.9,29.4C82.9,29.4,82.9,29.4,82.9,29.4C82.9,29.4,82.9,29.4,82.9,29.4L82.9,29.4L82.9,29.4z"/>
			<path class="st0" d="M97.6,18.8c0.2,0.1,0.3,0,0.4-0.2C97.8,18.6,97.7,18.6,97.6,18.8z"/>
			<path class="st0" d="M123.3,4.7L123.3,4.7c0.1,0,0-0.1,0-0.1L123.3,4.7L123.3,4.7z"/>
			<path class="st0" d="M123.3,4.5l0-0.1C123.4,4.4,123.3,4.4,123.3,4.5z"/>
			<path class="st0" d="M123.4,4.1l-0.1,0.3C123.4,4.4,123.5,4.3,123.4,4.1z"/>
			<path class="st0" d="M121.1,5.7l0.1,0.3C121.2,5.9,121.1,5.8,121.1,5.7z"/>
			<path class="st0" d="M120.5,6.2c0.2,0,0.7,0.3,0.8,0L121.2,6C121.4,6.4,120.3,5.7,120.5,6.2L120.5,6.2z"/>
			<path class="st0" d="M115.8,4.7l0.7-0.1c-0.3-0.2-0.6-0.5-0.4-0.7C114.9,3.4,116.6,4.3,115.8,4.7z"/>
			<path class="st0" d="M114,5.3c0.2-0.3-0.2-0.4-0.3-0.6C113.6,5.1,113.6,5.1,114,5.3z"/>
			<path class="st0" d="M102.1,12.2l-0.3-0.7C101.6,11.7,101.9,11.8,102.1,12.2z"/>
			<polygon class="st0" points="101.7,17 102.2,17.3 101.9,16.6 			"/>
			<polygon class="st0" points="97.7,13 97.7,12.8 97.5,13.3 			"/>
			<path class="st0" d="M77.5,23.7l0.4,0.8C78,24.4,77.6,23.4,77.5,23.7z"/>
			<path class="st0" d="M68.7,27.9c-0.2-0.4-0.6-0.6-0.6-0.1C68.3,27.7,68.6,28,68.7,27.9z"/>
			<polygon class="st0" points="39.8,27.6 40,27.3 39.6,27.5 			"/>
		</g>
		<g class="st1">
			<path class="st2" d="M4.9,5.8H4c-0.3,0-0.7,0-1,0c-0.3,0-0.6,0-1,0.1V3.2h8.9v2.6c-0.3,0-0.7-0.1-1-0.1c-0.3,0-0.7,0-1,0H8v7.1
				c0,0.3,0,0.6,0,0.9c0,0.3,0,0.6,0.1,0.9H4.8c0-0.3,0.1-0.6,0.1-0.9c0-0.3,0-0.6,0-0.9V5.8z"/>
			<path class="st2" d="M12.3,5c0-0.6,0-1.2-0.1-1.8h3.3c0,0.3-0.1,0.6-0.1,0.9c0,0.3,0,0.6,0,0.9v2.5h3.8V5c0-0.6,0-1.2-0.1-1.8
				h3.3c0,0.3-0.1,0.6-0.1,0.9c0,0.3,0,0.6,0,0.9v7.9c0,0.3,0,0.6,0,0.9c0,0.3,0,0.6,0.1,0.9H19c0.1-0.6,0.1-1.2,0.1-1.8v-2.8h-3.8
				v2.8c0,0.3,0,0.6,0,0.9c0,0.3,0,0.6,0.1,0.9h-3.3c0.1-0.6,0.1-1.2,0.1-1.8V5z"/>
			<path class="st2" d="M24.2,5c0-0.6,0-1.2-0.1-1.8h7.3l0.1,2.6c-0.3-0.1-0.7-0.1-1-0.1c-0.3,0-0.7,0-1,0h-2.3v2h1.8
				c0.3,0,0.6,0,0.9,0c0.3,0,0.6,0,0.9-0.1V10c-0.3,0-0.6-0.1-0.9-0.1c-0.3,0-0.6,0-0.9,0h-1.8v2.3h2.3c0.3,0,0.7,0,1.1,0
				s0.7-0.1,1.1-0.1l-0.1,2.6h-7.5c0.1-0.6,0.1-1.2,0.1-1.8V5z"/>
		</g>
		<g class="st1">
			<path class="st2" d="M12,33.9c-0.5,0.1-1,0.2-1.5,0.2c-0.5,0.1-1.1,0.1-1.6,0.1c-2.1,0-3.8-0.5-4.9-1.5c-1.1-1-1.7-2.5-1.7-4.5
				c0-1.3,0.3-2.4,0.8-3.3c0.6-0.9,1.3-1.5,2.3-1.9c1-0.4,2.1-0.6,3.5-0.6c0.6,0,1.1,0,1.6,0.1s0.9,0.2,1.3,0.3l0.1,2.9
				c-0.9-0.3-1.9-0.5-2.9-0.5c-1.1,0-2,0.3-2.7,0.8c-0.6,0.5-0.9,1.3-0.9,2.3c0,1.1,0.3,1.8,0.8,2.4c0.6,0.5,1.3,0.8,2.3,0.8
				c0.2,0,0.4,0,0.6-0.1v-1.5c0-0.3,0-0.6,0-0.8s0-0.5-0.1-0.8l2.8,0V33.9z"/>
		</g>
		<g class="st1">
			<path class="st2" d="M14,24.4c0-0.3,0-0.6,0-0.9c0-0.3-0.1-0.6-0.1-0.9h4.2c1.5,0,2.6,0.3,3.3,0.9c0.7,0.6,1,1.4,1,2.5
				c0,0.6-0.1,1.2-0.4,1.7c-0.3,0.5-0.7,0.9-1.4,1.2c0.5,0.2,0.9,0.5,1.1,0.9c0.2,0.4,0.5,0.9,0.6,1.6l0.3,1.1
				c0.1,0.6,0.3,1.1,0.6,1.6H20l-0.5-2c-0.1-0.5-0.3-0.9-0.4-1.1s-0.4-0.4-0.7-0.5c-0.3-0.1-0.6-0.1-1-0.1h-0.3v1.9
				c0,0.3,0,0.6,0,0.9c0,0.3,0.1,0.6,0.1,0.9h-3.3c0-0.3,0.1-0.6,0.1-0.9c0-0.3,0-0.6,0-0.9V24.4z M19.6,26.5c0-0.5-0.1-0.8-0.4-1.1
				s-0.7-0.4-1.4-0.4h-0.7v3h0.7c0.7,0,1.1-0.1,1.4-0.4C19.5,27.4,19.6,27,19.6,26.5z"/>
		</g>
		<g class="st1">
			<path class="st2" d="M27.8,24.4c0.1-0.3,0.2-0.6,0.3-0.9s0.1-0.6,0.2-0.9h4.1c0.1,0.3,0.1,0.6,0.2,0.9s0.2,0.6,0.2,0.9l3.3,9.6
				h-3.6c0-0.3-0.1-0.6-0.1-0.9c-0.1-0.3-0.1-0.6-0.2-0.9l-0.1-0.3h-3.7l-0.1,0.3c-0.1,0.3-0.2,0.6-0.2,0.9s-0.1,0.6-0.1,0.9h-3.4
				L27.8,24.4z M29,29.8h2.4l-1.2-4.1L29,29.8z"/>
			<path class="st2" d="M37.4,24.4c0-0.6,0-1.2-0.1-1.8h3.8c2.1,0,3.7,0.5,4.8,1.4c1.1,0.9,1.7,2.4,1.7,4.3c0,1.9-0.5,3.3-1.6,4.3
				c-1.1,1-2.6,1.5-4.7,1.5h-4c0-0.3,0.1-0.6,0.1-0.9c0-0.3,0-0.6,0-0.9V24.4z M44.5,28.2c0-1.1-0.3-2-0.8-2.5
				c-0.5-0.5-1.3-0.7-2.4-0.7h-0.8v6.5h0.8c1.1,0,1.8-0.3,2.4-0.8C44.2,30.3,44.5,29.4,44.5,28.2z"/>
		</g>
		<g class="st1">
			<path class="st2" d="M49.8,24.4c0-0.6,0-1.2-0.1-1.8H57l0.1,2.6c-0.3-0.1-0.7-0.1-1-0.1c-0.3,0-0.7,0-1,0h-2.3v2h1.8
				c0.3,0,0.6,0,0.9,0c0.3,0,0.6,0,0.9-0.1v2.4c-0.3,0-0.6-0.1-0.9-0.1c-0.3,0-0.6,0-0.9,0h-1.8v2.3h2.3c0.3,0,0.7,0,1.1,0
				s0.7-0.1,1.1-0.1L57.2,34h-7.5c0.1-0.6,0.1-1.2,0.1-1.8V24.4z"/>
		</g>
		<g class="st1">
			<path class="st2" d="M59,24.4c0-0.3,0-0.6,0-0.9c0-0.3,0-0.6-0.1-0.9h3.3c0,0.3-0.1,0.6-0.1,0.9c0,0.3,0,0.6,0,0.9v4.7
				c0,0.8,0.2,1.4,0.5,1.8c0.3,0.4,0.8,0.6,1.4,0.6c1.3,0,2-0.8,2-2.4v-4.7c0-0.6,0-1.2-0.1-1.8H69c0,0.3-0.1,0.6-0.1,0.9
				c0,0.3,0,0.6,0,0.9v4.8c0,1-0.2,1.9-0.5,2.7c-0.3,0.8-0.9,1.3-1.6,1.7c-0.7,0.4-1.7,0.6-2.8,0.6s-2.1-0.2-2.8-0.6
				c-0.7-0.4-1.3-1-1.6-1.7c-0.3-0.8-0.5-1.6-0.5-2.7V24.4z"/>
			<path class="st2" d="M70.8,24.4c0-0.3,0-0.6,0-0.9c0-0.3,0-0.6-0.1-0.9H74c0,0.3-0.1,0.6-0.1,0.9c0,0.3,0,0.6,0,0.9v7.2H76
				c0.4,0,0.7,0,1.1,0c0.3,0,0.7,0,1-0.1V34h-7.4c0-0.3,0.1-0.6,0.1-0.9c0-0.3,0-0.6,0-0.9V24.4z"/>
		</g>
		<g class="st1">
			<path class="st2" d="M82.8,24.4c0.1-0.3,0.2-0.6,0.3-0.9s0.1-0.6,0.2-0.9h4.1c0.1,0.3,0.1,0.6,0.2,0.9c0.1,0.3,0.2,0.6,0.2,0.9
				l3.3,9.6h-3.6c0-0.3-0.1-0.6-0.1-0.9c-0.1-0.3-0.1-0.6-0.2-0.9l-0.1-0.3h-3.7l-0.1,0.3c-0.1,0.3-0.2,0.6-0.2,0.9
				C83,33.4,83,33.7,83,34h-3.4L82.8,24.4z M84,29.8h2.4l-1.2-4.1L84,29.8z"/>
		</g>
		<g class="st1">
			<path class="st2" d="M93.7,25.1h-1c-0.3,0-0.7,0-1,0c-0.3,0-0.6,0-1,0.1v-2.6h8.9v2.6c-0.3,0-0.7-0.1-1-0.1c-0.3,0-0.7,0-1,0h-1
				v7.1c0,0.3,0,0.6,0,0.9c0,0.3,0,0.6,0.1,0.9h-3.3c0-0.3,0.1-0.6,0.1-0.9c0-0.3,0-0.6,0-0.9V25.1z"/>
		</g>
		<g class="st1">
			<path class="st2" d="M101.6,31.4c-0.5-0.9-0.7-2-0.7-3.2c0-1.3,0.3-2.4,0.8-3.2c0.5-0.9,1.2-1.5,2.1-1.9c0.9-0.4,1.9-0.7,3-0.7
				s2.1,0.2,3,0.8c0.8,0.5,1.5,1.2,2,2.1s0.7,1.9,0.7,3.1c0,1.3-0.3,2.4-0.8,3.2c-0.5,0.9-1.2,1.5-2.1,1.9c-0.9,0.4-1.9,0.7-3,0.7
				s-2.1-0.2-2.9-0.7S102.1,32.3,101.6,31.4z M109.3,28.5c0-1.1-0.2-2-0.7-2.6c-0.5-0.6-1.1-0.9-1.9-0.9c-0.8,0-1.4,0.3-1.9,0.8
				c-0.5,0.5-0.7,1.3-0.7,2.2c0,1.1,0.2,2,0.7,2.6c0.5,0.6,1.1,0.9,1.9,0.9c0.8,0,1.4-0.3,1.9-0.8C109,30.2,109.3,29.5,109.3,28.5z"
				/>
			<path class="st2" d="M114,24.4c0-0.3,0-0.6,0-0.9c0-0.3-0.1-0.6-0.1-0.9h4.2c1.5,0,2.6,0.3,3.3,0.9s1,1.4,1,2.5
				c0,0.6-0.1,1.2-0.4,1.7c-0.3,0.5-0.7,0.9-1.4,1.2c0.5,0.2,0.9,0.5,1.1,0.9c0.2,0.4,0.5,0.9,0.6,1.6l0.3,1.1
				c0.1,0.6,0.3,1.1,0.6,1.6H120l-0.5-2c-0.1-0.5-0.3-0.9-0.4-1.1s-0.4-0.4-0.7-0.5s-0.6-0.1-1-0.1H117v1.9c0,0.3,0,0.6,0,0.9
				c0,0.3,0.1,0.6,0.1,0.9h-3.3c0-0.3,0.1-0.6,0.1-0.9c0-0.3,0-0.6,0-0.9V24.4z M119.5,26.5c0-0.5-0.1-0.8-0.4-1.1
				c-0.3-0.3-0.7-0.4-1.4-0.4H117v3h0.7c0.7,0,1.1-0.1,1.4-0.4C119.4,27.4,119.5,27,119.5,26.5z"/>
		</g>
	</g>
</g>
</svg>
