<?xml version="1.0" encoding="UTF-8"?>
<svg id="Layer_2" data-name="Layer 2" xmlns="http://www.w3.org/2000/svg" viewBox="0 0 124.85 40.59">
  <defs>
    <style>
      .cls-1 {
        fill: #928661;
      }

      .cls-2 {
        fill: #5a4088;
        font-family: Highgate-Black, Highgate;
        font-size: 16.11px;
        font-weight: 800;
      }

      .cls-3 {
        letter-spacing: .02em;
      }

      .cls-4 {
        letter-spacing: -.01em;
      }

      .cls-5 {
        letter-spacing: 0em;
      }

      .cls-6 {
        letter-spacing: -.09em;
      }

      .cls-7 {
        letter-spacing: 0em;
      }
    </style>
  </defs>
  <g id="Layer_1-2" data-name="Layer 1">
    <g>
      <g>
        <path class="cls-1" d="M124.85,2.87c-.09-.25-.46-.71-.55-.51l.45,.89,.1-.39Z"/>
        <path class="cls-1" d="M122.73,2.09c.08,.52,.34,1.37,.98,2.04-.35-.92-.08-.62-.52-1.69,.09-.2,.46,.07,.64,.39-.09-.25,.37,0,.1-.56-.64-.49-.92-.34-.84,.37-.18-.14-.27-.39-.36-.55Z"/>
        <path class="cls-1" d="M105.98,10.63l.16,.04c-.06-.04-.11-.05-.16-.04Z"/>
        <path class="cls-1" d="M95.58,15.83c.07-.06,.05-.17,.01-.25-.04,.1-.07,.18-.01,.25Z"/>
        <path class="cls-1" d="M93.31,15.83c.05,0,.09,0,.14,0-.08-.06-.15-.08-.14,0Z"/>
        <path class="cls-1" d="M105.98,10.63l-.42-.12c.14,.29,.26,.13,.42,.12Z"/>
        <path class="cls-1" d="M121.9,5.54c.03-.08,.02-.18,0-.31-.02,.07-.05,.13-.08,.18,.03,.05,.05,.09,.08,.14Z"/>
        <path class="cls-1" d="M109.98,7.37l.08-.05c-.03-.11-.08-.24-.14-.39l.06,.44Z"/>
        <path class="cls-1" d="M113.25,5.22c-.09,.01,.32,.75,.48,1.08-.14-.32-.17-.5-.14-.59-.08-.14-.19-.29-.35-.49Z"/>
        <path class="cls-1" d="M119.28,3.17l.03-.16s-.03,.1-.03,.16Z"/>
        <path class="cls-1" d="M107.48,8.63c-.07-.1-.14-.19-.18-.24,.05,.09,.12,.17,.18,.24Z"/>
        <path class="cls-1" d="M7.42,38.54s-.06-.08-.1-.12c.04,.08,.07,.13,.1,.12Z"/>
        <path class="cls-1" d="M1.5,38.54v-.08c-.11-.11-.23-.21-.35-.31l.35,.39Z"/>
        <path class="cls-1" d="M89.62,16.63s.01,0,.02,0c.04-.13,0-.09-.02,0Z"/>
        <path class="cls-1" d="M60.08,28.23c.45,.71-.48,1.02,.16,1.8-.08-.32,.34-1.36-.16-1.8Z"/>
        <path class="cls-1" d="M121.75,5.5s-.08,.07-.13,.1c.08-.02,.12-.05,.13-.1Z"/>
        <path class="cls-1" d="M60.24,30.03h0s.07,.08,.07,.08c-.03-.03-.04-.05-.07-.08Z"/>
        <path class="cls-1" d="M82.57,20.89c.08,.13,.16,.21,.24,.29-.04-.08-.1-.16-.24-.29Z"/>
        <path class="cls-1" d="M88.57,19.13l-.19-.03c.09,.04,.15,.04,.19,.03Z"/>
        <path class="cls-1" d="M80.23,23.32c-.1-.02-.18-.12-.23,.03,.03,.03,.05,.06,.07,.08-.01-.12,.02-.19,.16-.11Z"/>
        <path class="cls-1" d="M77.22,24.66c.04,.05,.08,.09,.12,.13l.08-.08-.2-.05Z"/>
        <path class="cls-1" d="M14.95,34.01c-.13-.2-.25-.44-.36-.68,.23,.56-.11,.9,.36,.68Z"/>
        <path class="cls-1" d="M121.63,5.14c.1,.19,.13,.29,.12,.36,.03-.03,.05-.06,.07-.1-.06-.11-.12-.21-.19-.26Z"/>
        <path class="cls-1" d="M82.89,29.43l-.56,.12c.18,0,.38-.04,.56-.12Z"/>
        <path class="cls-1" d="M37.4,34.52l-.14,.08s.09,0,.14-.08Z"/>
        <path class="cls-1" d="M80.86,30.33c-.21-.23-.37-.35-.52-.41,0,.07,0,.13,.03,.23l.49,.18Z"/>
        <path class="cls-1" d="M14.59,33.33h0s0,0,0,0Z"/>
        <path class="cls-1" d="M12.49,36.31c.39-.16-.27-1.07-.45-1.69,.36-.52,.56,.64,.95,1.08,.17-.39,.02-1.42,.28-1.48,.08,.16,.15,.21,.19,.44,0-.97,.95-.4,1-1.59,.06,.08,.1,.17,.14,.24-.24-.51-.43-1.04-.54-1.42,.2-.09,.18-.79,.47-.12-.13,.02-.06,.3-.05,.53l.12-.36c.5,.94-.19,.43,.05,1.16,.3-.44,.55-1.41,.96-1.22,.33,.97-.65,.55,.01,1.3l-.59-.23c.82,1.43-.32-.03,.51,1.53,.67,.11,.53-.71,1.21-.56,0-.58-.24-.8-.23-1.39,.72-1.22,1.23,2.35,1.61,.9,.05-.69-.09-2,.51-1.39v1.16c.62,.04,.14-1.69,.89-1-.07,.47-.44,.44-.33,.57,.52,.85,.22-.69,.55-.73l.17,1.01c.62-.21,1.31-1.01,2.09-1.19-.04,.3-.16,.62,.01,.93,.94-.52,2.03,.16,2.89,.84l.43-.85c.08,.02,.12,.41,.01,.57,.33,.37,.07-.56,.28-.88,.22-.04,.23,.53,.07,.78,.71-.69,2.06-1.39,2.65-.36l-.17,.24c.5,.43,.87-1.7,1.27-.82l-.12,.14c1.15,.55,2.63-.04,3.39,1.41,.36-1.23,1.15,.74,1.48-1.01,.59,.97,.34,1.25,1.27,1.97,.26,.12,.55-1.04,.9-1.18l-.11,.92,.57-.9,.1,1.13,.34-.2c-.12-.07-.21-.45-.16-.71,.54-.35,1.11,.79,1.06,1.26l1.25-.64c-.07,.37-.28,.47-.46,.69,.73-.87,0,.98,.67,.19-.05-.22,.1-.54,.14-.73,.22,.59,.87,.66,1.37,.47l-.16,.62c.85,.26,1.86-.13,2.83-.03-.33-.33-.15-1.42,.14-1.5l.03,.98c.23-.59-.27-.39,.17-1.1,.35,.14,.16,1.13-.08,1.43l.47-.31c0,.29-.11,.44-.17,.81,.23-.59,.7,1.03,1.04,0v.29c.99,.08,1.46-.24,2.26-.24,.06-.84,.36-.64,.63-1.31,.57,.29,1.2,.97,1.92,.92,.51-.41,.16-.71,.4-1.21,.02,.77,.73,.7,.36,1.25,.86-.12,1.1-.13,2.17-.77-.12-.31-.25-.45-.19-.71,.19-.13,.44,.32,.42,.69l-.05,.08c1.16-1.16,2.89,2.16,3.8,.51l-.05,.08,.95-.9c.47,.1-.24,.6,.14,1.05,.99-1.34,1.75,.02,2.56-.91,.97,2.17,2.44-.46,3.6,.79l-.14-.52c.16-.56,.35,.25,.55,.34-.1-.4-.35-.43-.25-.74,1.92-.98,4.38-.08,6.61-.23,.8-.08-.34-2.76,.95-1.83l.02,1.03c1.15-1.6,3.09-.95,4.17-2.44,0,.25,.1,.53-.04,.58,.55,.56,1.13-.39,.92-.94,.24-.02,.24,.48,.49,.7,.46,.28,.42-1.15,.84-.55,.07,.1,0,.25-.03,.33,.06-.4,.94-.29,.44-.98,.68,.15,.86-.75,1.46-.48-.1-.97,1.07,.02,.62-1.22,.51,1.26,1.35,.6,1.41-.13,.06,.42,.46,.26,.57,.83,.36-.19,.6-.57,.24-1.17,1.38,1.15,.78-1.82,2.07-.13,.76-1.18,1.53-2.12,2.33-2.89,.59,1.22-.99,.66-.31,1.9,.66-.96,.64-2.26,1.68-2.43,.32,.04,.14,.59,.17,.83,.63-.97,1.79-.8,2.23-1.88,.06,.11,.04,.28,0,.41,.13-.12,.46-.02,.15-.55l-.07,.23c-.67-.65-.27-1.97-.47-2.4,.58,1.69,.99-.03,1.63,2.15,.05-.16,.04-.48-.18-.83,.21,.02,.37,.21,.44,.7,.39-.6-.12-1.06,.39-1.32,.14,.26,.1,.42,.21,.75-.02-.65-.05-1.3,.49-1.31,.06,.17,.22,.35,.09,.41,.68-.48,.49-2.03,1.55-1.98,.39,1.26,.47,.22,1.06,1.18l.26-.53-.43-.38c.38-.19,.32-1.08,.81-.94l-.05,.56,.6-.57-.6-.15c.1-.71-.73-1.22-.08-1.22-.05,.16,.38-.19,.89,.28h0c.01-.41,.02-.84,.43-.75,.24,.27,.54,1.12,.7,1.3-.27-.92,.75-.71,.49-1.71,.04,.25,.32,.76,.4,.86l-.22-.75c.29,.12,.37,.21,.57,.63,.59-.17-.85-1.15,.06-.96-.02,.08,.06,.17,.02,.32,.77-.06,.96-1.09,1.71-1.08,.72,.89-.36,.52,.29,1.24,.72-.63,1.04-2.13,1.96-2.34l-.21-.03c-.67-1.45,.98,.35,1.01-.53-.04,.16,.31,.84,.25,.67,.67-.09,.92-.97,1.48-1.87l.1,.41c.5,.13,.94-.3,1.38-.33-.1-.41,.13-.47-.29-.91,2.23,1.4,1.39-2.25,3.3-1.12-.11,.07-.09,.47,0,.41l.61-.79c-.42-.56-.32-.3-.76-.67-.11-.41-.05-.82,.15-.94-.12,.61,.57,.96,.92,1.2-.13-.17-.2-.4-.33-.58,1.05,.81-.65-1.24,.34-.86l.16,.33c.12-.29,.06-.81,.34-.86,.51,.63-.03,.46,.29,1.03,.3-.23-.15-1.68,.55-1.17-.02,.27-.21,.4-.23,.67,.8,.62,.71,.39,1.03,.37h-.03s.76,.03,.76,.03l-.27-.13c-.69-2.03,.62-.82,.43-2.32,.16,1.43,.31,.69,.75,1.49,.27,.13,.63,.24,.7,.49-.13-.78,.73,.23,.52-.91,.17,.24,.29-.14,.62,.51,.21-.4-.35-.38-.52-.71-.03-1.16,1.84,.27,1.83-1.35,.32-.88-.1-1.78,.2-2.57,.45,.27,.42,1,.42,1,.55,.16,.74-.06,.85-.54,.08,.25,.26,.39,.53,.61,.19-.22-.43-.99,.12-.84,.13,.31,.35,.79,.41,1.14,.13-.41,.1-1.05,.24-1.46,.36,.37,.26,.76,.34,1.1,.2-.41,.59-.94,.23-1.68l-.37-.1c.1-.11,.45,.53,.44,.71,.08,.71-.56,.03-.74-.2l.1-.29c-1.16-1.29-.67,.77-1.14,.97l-.52-1.16,.15,1.14c-.27-.21-.71-.76-.61-1.04-.63-.32-.02,.54-.65,.13-.09-.07-.11-.13-.11-.19l-.08,.5c-.09-.26-.53-.71-.25-.67-.91-.27-.32,1.33-1.03,.66v-.09c-.49,.82,.43,.82,.46,2.07l-1.58-1.67,.42,.82c-.09,.02-.28,.06-.45-.27,.06,.71,.26,.31,.42,.91-.8-.48-.79,.96-1.64-.23,.24,.67,.63,.24,.5,.89-.94-1.26-.3,.51-1.01,.1-.32-.75,.21-.58-.5-.99,.52,1.29-.8,.14-.94,.53,.56,.94-.37,.76-.65,1.35-.16-.33-1.19,.02-1.83-.06l-.08-.16c.48,1-.08,1.09-.29,1.48-.32-.57-.4-.83-.37-1.19l-.31,.19c.11,.35,.11,.56-.03,.79l-.34-.75c-.39,.28-.34,1.33-1.15,1.16,.36,.68,1.51,1.6,1.2,2.37-.23-.35-.61-.95-.55-1.18-.02,.08,0,.4-.19,.3l-.13-.73c-.4-.12,.17,.58-.06,.64-.29-.51-.36-.28-.57-.7,.02-.08,.29,.11,.25-.13-.27,.04-.71-.11-1.03-.45,.19,.28,.4,.69,.28,.85-.39,.28-.5-.53-.89-.66,.11,.41-.37,.2,.06,.97-.12,.07-.35-.28-.52-.46-.02,.46-.95,.67-.24,1.35l.09,.02s-.01,.03-.02,.05h0s0,0,0,0c-.27,1.17-1.72,.41-2.23,1.13l-.15-.26c-.25,.53-.84,.7-.83,1.43-.13,.07-.56-.31-.68-.64-.21,.37-.09,.69-.79,.52,.07-.63-.34-.34,.15-.52-.54,.01-.87-.35-.92,.61-.22-.75-.78-.66-.87-.35l.56,.31c-.17,.22-.4,.27-.63,.33l-.38-.93c-1.44-.58-.54,2.67-2.18,1.25,.11,.74,.7,.17,.9,1-.46,.1-1.57-.92-1.69-.86-.81-.18,.2,1.56-.55,1.54,.24,.27,.77,1.07,.51,1.59-.46,.1-1.21-1.04-1.1-1.43,.08-.08,.18,0,.24,.1,.07-.18,.16-.41-.18-.66l.12,.34c-.37-.21-.9,.12-1.05-.46-.14,.46,.15,.58,.47,.62-.76-.17-.8,.42-1.49,.41,.18,.13,.46,.45,.37,.49-.98,.04-.01,.78-.46,1.2-.56-.31-.52-1.19-.82-.51-.5-.15-.52-.79-.54-1.11-.15,.86-1.11,.09-1.44,.13l.11-.39c-.07,.23-.19,.29-.32,.36l.48,.55c-.21-.03-.33,.04-.47-.22,.07,.49,.68,.98,.69,1.7-.37-.21-.41,.67-.93-.12,.77-.06-.52-.8-.07-1.22-.05,.15-.17,.22-.38,.19-.07-.08-.07-.18-.06-.25-.99-.42,.24,1.09-.38,1.4-.18-.51-.62-.81-.67-.66,.25-.12,.54,.72,.51,1.2-.59-.15-.28,.5-.51,.57l.33,.04c.17,.51-.06,.56-.25,.85-.22-.35,.11-.39-.07-.49,.14,.99-1.14-.49-1.27,.29-.36-.21-.49-.87-.77-1-.15,.86-.85-.37-1.08,.39,.47,.56,.42,.39,.39,1.19l.59-.87-.04,1.2c.25-.12,.32-.67,.52-.64,.02,.65-.04,.48,.36,.94-.84-.77-.39,.91-1.12,.47l-.8-1.58c-.95-.4-.63,1.35-1.6,1.34l.39,.15c.21,.68-.43,.33-.55,.71-.24-.54-.49-.66-.76-.93,.21,.39-.58,.24-.13,1.34l-.69-.54c-.76,0,.02,1.87-.68,1.97-.09-.67-.54-.92-.34-1.52-.2,.09-.43,.07-.26,.45-.27-.28-.22,.98-.64,.56,.02,.28,.25,.85,0,.91-.07-.1-.12-.27-.12-.27,.12,.27-.19,.53,.28,1.03-1.38-1.4-1.72,.91-2.89-.32-.37,.37-.84,.76-1.23,.97-.04-.18-.11-.27,0-.25-.76-.28,.28,1.72-.6,1.4-.67-.77,.16-.61-.18-.87-.79-1.79-.68,.54-1.51-.36l.06-.15c-.55-.49-.55,.98-1.14,1.04,0,0-.03-.17-.09-.28-.04,1.07-.65,1.63-1.11,2.05-.07-.78,.12-.46-.22-1.17-.2,.18,.45,1.16,.04,1.52-.28-.35-.73-.59-1.02-1.36l.43-.18c-.54-.95-.56,.22-.85,.11l-.1-.46c-.63,.34-.32,1.47-1.09,1.6l.17,.32c-.11,1.24-.51-.53-.7,.41l-.42-1.12c-.19,.34-.66,1.34-1.11,1.68,.08-.92,.54-1.5,.75-2.09-.26,.06-.87,.3-.88,.91,.08-.14,.15-.45,.3-.3-.11,.99-.44,1.54-.99,1.63-.38-2.27-1.52-.26-2.23-1.96-.79,1.01-1.9-.05-2.96,.22,.61,1.72-.31,.09-.02,1.91-.25,.15-.35,.13-.39,.01l-.91-1.01c-.24-.51,.2-.43,.14-.83-.57-.08-.31-.75-.72-1.2,.14,.65-.1,.96-.44,.74l.52,.8c-.7,1.06-.8-1.48-1.51-.45l.21-.59c-.38,.37-1.47,.09-1.81,1.57-.08-.21-.2-.71-.03-.85-.96-.17-2.14,1.63-2.92,.74l.07-.45c-.18,.13-.32,.85-.55,.39,.01-.19,.07-.45-.01-.47-.1,.15-.49,.78-.73,.52l.21-.5c-.94-.59-1.49,1.21-2.33,1.49,.04-1.32-.69-1.77-1.06-2l.02-.19c-1.1-.22-1.96,1-3.05,1.43-.54-1.47-2.16-.78-3.12-1.68,.14,.26-.13,1.02-.33,1.13-.22-.29-.78,.84-.61-.36l.09,.03c-.06-1.2-.59-.93-.98-1.02l-.24,1.57c-.76-2.4-2.82,.51-3.13-1.61-.3,.36-.61,.32-.91,.67l.13-.84c-.66-.31-.99-.46-1.88-.38l.26-.58c-.47-.12-.96,2.34-1.41,2.32l.05-1.27c-.84-.1-1.54-1.33-2.57-.32,.04-.18,.12-.54,.27-.57-.4-.09-1.47-1.08-1.56,.67,.14-1.12-.9-.23-1.43,.21l.18-.82c-.54,1.01-.58,1.3-1.17,1.53-.12-.12-.05-.68,.11-.45-.4-.49-.43,.75-.92,.25l.25-.51c-.46-.11-.45,.18-.76,.78-.31,.31-.85-.28-.88-1.04-.1,.45-.38,1.05-.65,.82-.02-.29,.09-.46,.14-.54-.77-.61-1.2,.92-1.72,.1,0-.28-.04-.42-.09-.5,.64,.02,1.15,.09,1.1,.15,.03-.77-.49-.92-.04-1.97-.46,.56-1.18,1.81-1.69,1.46-.03-.07-.05-.15-.07-.27l.05-.09c-.12-.08-.23,0-.32,.13-.17-.12-.28-.21-.44-.22-.08-.64-.64-.32-.91-.32,.07,.84-.28,.73,.09,1.4-.05-.06,.04-.1,.21-.15,.04-.03,.08-.04,.11-.1,0,.02,0,.05-.01,.08,.17-.04,.39-.06,.64-.09-.19,.44-.38,.8-.69,.35-.1,.54-.21,1.1-.27,1.38-.41-1.15-1.17-1.74-1.35-2.43-.76,.56-1.89,.57-2.07,2.23-.18,.24-.34-.4-.47-.63,.1-.18,.25-.18,.28-.42-.37,.46-1.28,.44-1.12,1.54-.66-.36,.07-1.06-.64-.71l.02-.35c-.97-.66-1.42,.21-1.81,1.01-.41,.82-.78,1.55-1.97,.82,.16,.09,.24,.12,.33,.29-1.07-.12-1.88,.51-2.66,1.11-.79,.59-1.55,1.14-2.78,1-.63,.03-.29,.65-.24,1.27l-.61-.67,.16,1.18c-.08,.54-.68,.28-1.26,.16-.57-.13-1.16-.17-1.06,.72l.5,.37c-.34,.16-.58,1.02-1.02,.47,.05,.11,.35,.54,.03,.4l-.34-.33-.04,1.2c-.72,.26-1.3-1.4-2.06-.68-.13,.43,.33,1.72,.67,1.81,.12-.1,.48-.09,.84,.21l-.02,.4c1.03,.95,2.01,1.99,3.19,2.13l-.33-.92,.6,.34-.22,.32c.62,.26,.28-.22,.12-.6,.29,.22,.52,.35,.68,.37-.22-.41-.43-.83-.63-1.26,.42,.35,.63,.91,1.05,.91-.28-.6-1.01-.72-1.04-1.27,.61,.29,.92,.72,.74,.14,.27,.24,.39,.44,.42,.63-.12-.47,.33-.55-.07-1.19,.68,.42,.5-.68,1.32,.35-.15-.29-.33-1.07-.19-1.26,.65,1.49,.72-.42,1.64,1.02-.61-1.34,.49-1.1,.49-2.05,.04,.11,.11,.34,.03,.3,.31-.06,.61,.27,.91,.4-.58-1.02-.31-1.49-.44-2.26,.88,.81,.48,1.31,1.12,2.21-.49-.83,.08-1.12-.4-1.77,.58,.49,.38,.19,.95,.99-.63-1.33,.11-.34-.09-1.25,.69,.48,.69,1.2,.9,.61,.37,.32,.25,.95,.25,.95Zm9.5-4.74s0,.02,0,.02c-.09,.02-.18,.04-.23,.05,.05-.01,.11-.03,.23-.07Zm.93,0c-.11-.04-.25-.04-.4-.04-.03-.29,0-.59,.1-.57-.05,.19,.17,.36,.3,.61Zm-2.24-5.82c.17-.13,.24,.04,.27,.21-.08,.02-.18,.05-.31,.11,0,.03-.01,.07-.02,.1,0-.16,.02-.32,.05-.43Z"/>
        <path class="cls-1" d="M20.43,26.88s-.04,.06-.07,.07c.04,.07,.08,.13,.11,.18,.02-.09,.03-.18,.05-.27-.03,0-.06,.01-.09,.02Z"/>
        <path class="cls-1" d="M106.17,10.68h-.03s.06,.03,.1,.08c-.03-.03-.05-.05-.07-.08Z"/>
        <polygon class="cls-1" points="36.22 34.79 36.25 34.57 36.13 34.75 36.22 34.79"/>
        <path class="cls-1" d="M112.4,10.39c.05,.06,.1,.11,.17,.15-.03-.05-.1-.09-.17-.15Z"/>
        <path class="cls-1" d="M114.55,9.32l.45,.08c-.21-.07-.35-.08-.45-.08Z"/>
        <path class="cls-1" d="M116.35,8.71c-.06-.14-.11-.24-.16-.33h0s.17,.33,.17,.33Z"/>
        <path class="cls-1" d="M91.35,24.05s-.04,.04-.04,.07c-.07,.22,0,.11,.04-.07Z"/>
        <path class="cls-1" d="M98.04,18.13c0,.18-.01,.35-.05,.48,.17-.02,.28-.06,.05-.48Z"/>
        <path class="cls-1" d="M82.95,29.41s0,0,0-.01c-.02,.01-.04,.02-.06,.03h.06Z"/>
        <path class="cls-1" d="M97.63,18.8c.22,.07,.31-.02,.36-.18-.14,.01-.31,0-.36,.18Z"/>
        <path class="cls-1" d="M123.32,4.68l.09-.02s-.05-.09-.07-.12l-.03,.14Z"/>
        <path class="cls-1" d="M123.35,4.54l.03-.14s-.07,.05-.03,.14Z"/>
        <path class="cls-1" d="M123.43,4.11l-.05,.29c.06-.04,.15-.07,.05-.29Z"/>
        <path class="cls-1" d="M121.05,5.72l.14,.27c-.02-.06-.07-.15-.14-.27Z"/>
        <path class="cls-1" d="M120.48,6.2c.19-.04,.73,.3,.83,0l-.11-.22c.15,.44-.86-.31-.72,.21Z"/>
        <path class="cls-1" d="M115.84,4.67l.65-.12c-.26-.22-.62-.51-.42-.73-1.17-.41,.52,.53-.23,.85Z"/>
        <path class="cls-1" d="M113.98,5.27c.2-.3-.25-.4-.33-.57-.02,.36-.03,.45,.33,.57Z"/>
        <path class="cls-1" d="M102.09,12.22l-.35-.69c-.17,.22,.14,.26,.35,.69Z"/>
        <polygon class="cls-1" points="101.71 16.98 102.16 17.27 101.93 16.6 101.71 16.98"/>
        <polygon class="cls-1" points="97.69 12.96 97.74 12.81 97.5 13.26 97.69 12.96"/>
        <path class="cls-1" d="M77.47,23.74l.44,.84c.09-.22-.3-1.21-.44-.84Z"/>
        <path class="cls-1" d="M68.67,27.88c-.23-.43-.56-.65-.61-.15,.23,0,.53,.3,.61,.15Z"/>
        <polygon class="cls-1" points="39.79 27.59 40.02 27.3 39.62 27.52 39.79 27.59"/>
      </g>
      <text class="cls-2" transform="translate(1.69 14.68)"><tspan x="0" y="0">THE</tspan><tspan x="0" y="19.33">G</tspan><tspan class="cls-3" x="11.31" y="19.33">R</tspan><tspan x="22.48" y="19.33">AD</tspan><tspan class="cls-4" x="47.09" y="19.33">E</tspan><tspan class="cls-7" x="56.42" y="19.33">UL</tspan><tspan class="cls-6" x="77.51" y="19.33">A</tspan><tspan class="cls-5" x="88.82" y="19.33">T</tspan><tspan x="98.64" y="19.33">OR</tspan></text>
    </g>
  </g>
</svg>